<?xml version="1.0" standalone="no"?>
<svg
  width="600"
  height="600"
  viewBox="0 0 600 600"
  xmlns="http://www.w3.org/2000/svg"
>
  <g transform="translate(300,300)">
    <path d="M121.7,-215.4C138.5,-178.6,119.8,-112.3,126,-66.9C132.3,-21.4,163.7,3.3,182.1,41.6C200.5,79.8,206.1,131.6,184.7,164.7C163.2,197.7,114.9,212.1,67.9,221.3C20.9,230.6,-24.6,234.8,-64.9,222.3C-105.2,209.9,-140.3,180.9,-174.6,147.7C-208.9,114.5,-242.6,77.1,-244.6,37.5C-246.6,-2.1,-217,-43.8,-189.3,-79C-161.7,-114.3,-136,-142.9,-104.8,-173.2C-73.5,-203.4,-36.8,-235.2,7.8,-247.4C52.4,-259.6,104.9,-252.2,121.7,-215.4Z" fill="#b0d1b2" />
  </g>
</svg>
  