
      <svg xmlns="http://www.w3.org/2000/svg" version="1.1" width="1680" height="900" style="display: block;"><polygon stroke-linejoin="round" stroke-miterlimit="1" stroke-width="1" points="358,-91 -167,-91 126,-79" style="fill:#a7a894;stroke:#a7a894;"></polygon><polygon stroke-linejoin="round" stroke-miterlimit="1" stroke-width="1" points="1700,-91 1429,-91 1476,-87" style="fill:#aba89b;stroke:#aba89b;"></polygon><polygon stroke-linejoin="round" stroke-miterlimit="1" stroke-width="1" points="1849,121 1734,143 1818,165" style="fill:#baa9c3;stroke:#baa9c3;"></polygon><polygon stroke-linejoin="round" stroke-miterlimit="1" stroke-width="1" points="1849,52 1777,-91 1700,-91" style="fill:#ada8a0;stroke:#ada8a0;"></polygon><polygon stroke-linejoin="round" stroke-miterlimit="1" stroke-width="1" points="1849,52 1700,-91 1734,143" style="fill:#b0a8a9;stroke:#b0a8a9;"></polygon><polygon stroke-linejoin="round" stroke-miterlimit="1" stroke-width="1" points="1849,52 1802,-82 1777,-91" style="fill:#ada8a0;stroke:#ada8a0;"></polygon><polygon stroke-linejoin="round" stroke-miterlimit="1" stroke-width="1" points="1849,52 1734,143 1849,121" style="fill:#b5a8b4;stroke:#b5a8b4;"></polygon><polygon stroke-linejoin="round" stroke-miterlimit="1" stroke-width="1" points="1849,583 1705,466 1605,816" style="fill:#aba8ab;stroke:#aba8ab;"></polygon><polygon stroke-linejoin="round" stroke-miterlimit="1" stroke-width="1" points="1849,781 1849,583 1605,816" style="fill:#aaa8b1;stroke:#aaa8b1;"></polygon><polygon stroke-linejoin="round" stroke-miterlimit="1" stroke-width="1" points="1849,123 1849,121 1818,165" style="fill:#b6a8b7;stroke:#b6a8b7;"></polygon><polygon stroke-linejoin="round" stroke-miterlimit="1" stroke-width="1" points="1849,123 1818,165 1827,215" style="fill:#baa9c2;stroke:#baa9c2;"></polygon><polygon stroke-linejoin="round" stroke-miterlimit="1" stroke-width="1" points="1849,379 1827,215 1753,319" style="fill:#b9a9c1;stroke:#b9a9c1;"></polygon><polygon stroke-linejoin="round" stroke-miterlimit="1" stroke-width="1" points="1849,379 1753,319 1705,466" style="fill:#b2a8b2;stroke:#b2a8b2;"></polygon><polygon stroke-linejoin="round" stroke-miterlimit="1" stroke-width="1" points="1849,379 1849,123 1827,215" style="fill:#bba9c5;stroke:#bba9c5;"></polygon><polygon stroke-linejoin="round" stroke-miterlimit="1" stroke-width="1" points="1849,-31 1802,-82 1849,52" style="fill:#ada8a1;stroke:#ada8a1;"></polygon><polygon stroke-linejoin="round" stroke-miterlimit="1" stroke-width="1" points="1849,989 1369,982 1170,989" style="fill:#a9a8af;stroke:#a9a8af;"></polygon><polygon stroke-linejoin="round" stroke-miterlimit="1" stroke-width="1" points="1849,989 1849,781 1605,816" style="fill:#aba9cc;stroke:#aba9cc;"></polygon><polygon stroke-linejoin="round" stroke-miterlimit="1" stroke-width="1" points="1849,989 1605,816 1369,982" style="fill:#aaa8c6;stroke:#aaa8c6;"></polygon><polygon stroke-linejoin="round" stroke-miterlimit="1" stroke-width="1" points="1849,449 1849,379 1705,466" style="fill:#afa8ad;stroke:#afa8ad;"></polygon><polygon stroke-linejoin="round" stroke-miterlimit="1" stroke-width="1" points="1849,449 1705,466 1849,583" style="fill:#ada8aa;stroke:#ada8aa;"></polygon><polygon stroke-linejoin="round" stroke-miterlimit="1" stroke-width="1" points="1849,-91 1777,-91 1802,-82" style="fill:#aca89c;stroke:#aca89c;"></polygon><polygon stroke-linejoin="round" stroke-miterlimit="1" stroke-width="1" points="1849,-91 1802,-82 1849,-31" style="fill:#aca89d;stroke:#aca89d;"></polygon><polygon stroke-linejoin="round" stroke-miterlimit="1" stroke-width="1" points="1734,143 1700,-91 1666,133" style="fill:#b1a8ac;stroke:#b1a8ac;"></polygon><polygon stroke-linejoin="round" stroke-miterlimit="1" stroke-width="1" points="1827,215 1818,165 1734,143" style="fill:#c2a9d6;stroke:#c2a9d6;"></polygon><polygon stroke-linejoin="round" stroke-miterlimit="1" stroke-width="1" points="1827,215 1734,143 1753,319" style="fill:#d3a9ff;stroke:#d3a9ff;"></polygon><polygon stroke-linejoin="round" stroke-miterlimit="1" stroke-width="1" points="1753,319 1672,366 1705,466" style="fill:#b2a8b2;stroke:#b2a8b2;"></polygon><polygon stroke-linejoin="round" stroke-miterlimit="1" stroke-width="1" points="1753,319 1734,143 1666,133" style="fill:#c8a9e3;stroke:#c8a9e3;"></polygon><polygon stroke-linejoin="round" stroke-miterlimit="1" stroke-width="1" points="1753,319 1666,133 1672,366" style="fill:#bda9cb;stroke:#bda9cb;"></polygon><polygon stroke-linejoin="round" stroke-miterlimit="1" stroke-width="1" points="1672,366 1666,133 1493,307" style="fill:#b3a8b3;stroke:#b3a8b3;"></polygon><polygon stroke-linejoin="round" stroke-miterlimit="1" stroke-width="1" points="1700,-91 1514,-52 1666,133" style="fill:#ada8a2;stroke:#ada8a2;"></polygon><polygon stroke-linejoin="round" stroke-miterlimit="1" stroke-width="1" points="1666,133 1514,-52 1496,113" style="fill:#ada8a3;stroke:#ada8a3;"></polygon><polygon stroke-linejoin="round" stroke-miterlimit="1" stroke-width="1" points="1700,-91 1476,-87 1514,-52" style="fill:#aba89c;stroke:#aba89c;"></polygon><polygon stroke-linejoin="round" stroke-miterlimit="1" stroke-width="1" points="1705,466 1672,366 1493,307" style="fill:#afa8ad;stroke:#afa8ad;"></polygon><polygon stroke-linejoin="round" stroke-miterlimit="1" stroke-width="1" points="1705,466 1493,307 1605,816" style="fill:#aca8a8;stroke:#aca8a8;"></polygon><polygon stroke-linejoin="round" stroke-miterlimit="1" stroke-width="1" points="1605,816 1493,307 1189,377" style="fill:#aba8a4;stroke:#aba8a4;"></polygon><polygon stroke-linejoin="round" stroke-miterlimit="1" stroke-width="1" points="1605,816 1189,377 1101,653" style="fill:#aaa8a3;stroke:#aaa8a3;"></polygon><polygon stroke-linejoin="round" stroke-miterlimit="1" stroke-width="1" points="1666,133 1496,113 1493,307" style="fill:#afa8a9;stroke:#afa8a9;"></polygon><polygon stroke-linejoin="round" stroke-miterlimit="1" stroke-width="1" points="1605,816 1101,653 1369,982" style="fill:#a9a8a7;stroke:#a9a8a7;"></polygon><polygon stroke-linejoin="round" stroke-miterlimit="1" stroke-width="1" points="1493,307 1253,309 1189,377" style="fill:#aaa8a0;stroke:#aaa8a0;"></polygon><polygon stroke-linejoin="round" stroke-miterlimit="1" stroke-width="1" points="1493,307 1298,274 1253,309" style="fill:#aba8a0;stroke:#aba8a0;"></polygon><polygon stroke-linejoin="round" stroke-miterlimit="1" stroke-width="1" points="1496,113 1298,274 1493,307" style="fill:#aca8a2;stroke:#aca8a2;"></polygon><polygon stroke-linejoin="round" stroke-miterlimit="1" stroke-width="1" points="1514,-52 1476,-87 1435,-54" style="fill:#aaa89b;stroke:#aaa89b;"></polygon><polygon stroke-linejoin="round" stroke-miterlimit="1" stroke-width="1" points="1514,-52 1435,-54 1431,9" style="fill:#aba89b;stroke:#aba89b;"></polygon><polygon stroke-linejoin="round" stroke-miterlimit="1" stroke-width="1" points="1514,-52 1431,9 1496,113" style="fill:#aba89e;stroke:#aba89e;"></polygon><polygon stroke-linejoin="round" stroke-miterlimit="1" stroke-width="1" points="1496,113 1431,9 1298,274" style="fill:#aba89f;stroke:#aba89f;"></polygon><polygon stroke-linejoin="round" stroke-miterlimit="1" stroke-width="1" points="1369,982 1101,653 1170,989" style="fill:#a9a8a4;stroke:#a9a8a4;"></polygon><polygon stroke-linejoin="round" stroke-miterlimit="1" stroke-width="1" points="1476,-87 1429,-91 1435,-54" style="fill:#aaa89a;stroke:#aaa89a;"></polygon><polygon stroke-linejoin="round" stroke-miterlimit="1" stroke-width="1" points="1431,9 1317,-91 1161,-25" style="fill:#a9a899;stroke:#a9a899;"></polygon><polygon stroke-linejoin="round" stroke-miterlimit="1" stroke-width="1" points="1431,9 1161,-25 1298,274" style="fill:#aaa89b;stroke:#aaa89b;"></polygon><polygon stroke-linejoin="round" stroke-miterlimit="1" stroke-width="1" points="1435,-54 1317,-91 1431,9" style="fill:#aaa89a;stroke:#aaa89a;"></polygon><polygon stroke-linejoin="round" stroke-miterlimit="1" stroke-width="1" points="1435,-54 1429,-91 1317,-91" style="fill:#aaa899;stroke:#aaa899;"></polygon><polygon stroke-linejoin="round" stroke-miterlimit="1" stroke-width="1" points="1298,274 1161,-25 1253,309" style="fill:#aaa89c;stroke:#aaa89c;"></polygon><polygon stroke-linejoin="round" stroke-miterlimit="1" stroke-width="1" points="1317,-91 1052,-91 1161,-25" style="fill:#a9a897;stroke:#a9a897;"></polygon><polygon stroke-linejoin="round" stroke-miterlimit="1" stroke-width="1" points="1189,377 1013,524 1101,653" style="fill:#a9a8a1;stroke:#a9a8a1;"></polygon><polygon stroke-linejoin="round" stroke-miterlimit="1" stroke-width="1" points="1161,-25 997,-45 822,207" style="fill:#a8a898;stroke:#a8a898;"></polygon><polygon stroke-linejoin="round" stroke-miterlimit="1" stroke-width="1" points="1170,989 1101,653 1075,989" style="fill:#a9a8a4;stroke:#a9a8a4;"></polygon><polygon stroke-linejoin="round" stroke-miterlimit="1" stroke-width="1" points="1189,377 822,207 845,319" style="fill:#a9a89d;stroke:#a9a89d;"></polygon><polygon stroke-linejoin="round" stroke-miterlimit="1" stroke-width="1" points="1253,309 822,207 1189,377" style="fill:#a9a89d;stroke:#a9a89d;"></polygon><polygon stroke-linejoin="round" stroke-miterlimit="1" stroke-width="1" points="1253,309 1161,-25 822,207" style="fill:#a9a89b;stroke:#a9a89b;"></polygon><polygon stroke-linejoin="round" stroke-miterlimit="1" stroke-width="1" points="1101,653 963,654 1075,989" style="fill:#a9a8a4;stroke:#a9a8a4;"></polygon><polygon stroke-linejoin="round" stroke-miterlimit="1" stroke-width="1" points="1189,377 845,319 1013,524" style="fill:#a9a89f;stroke:#a9a89f;"></polygon><polygon stroke-linejoin="round" stroke-miterlimit="1" stroke-width="1" points="1161,-25 1052,-91 997,-45" style="fill:#a8a897;stroke:#a8a897;"></polygon><polygon stroke-linejoin="round" stroke-miterlimit="1" stroke-width="1" points="737,-91 358,-91 676,-74" style="fill:#a7a895;stroke:#a7a895;"></polygon><polygon stroke-linejoin="round" stroke-miterlimit="1" stroke-width="1" points="963,654 807,729 841,989" style="fill:#aaa8a8;stroke:#aaa8a8;"></polygon><polygon stroke-linejoin="round" stroke-miterlimit="1" stroke-width="1" points="1075,989 963,654 841,989" style="fill:#a9a8a6;stroke:#a9a8a6;"></polygon><polygon stroke-linejoin="round" stroke-miterlimit="1" stroke-width="1" points="1101,653 1013,524 963,654" style="fill:#a9a8a2;stroke:#a9a8a2;"></polygon><polygon stroke-linejoin="round" stroke-miterlimit="1" stroke-width="1" points="841,989 807,729 750,838" style="fill:#aba8ac;stroke:#aba8ac;"></polygon><polygon stroke-linejoin="round" stroke-miterlimit="1" stroke-width="1" points="1013,524 924,587 963,654" style="fill:#a9a8a3;stroke:#a9a8a3;"></polygon><polygon stroke-linejoin="round" stroke-miterlimit="1" stroke-width="1" points="1052,-91 841,-91 997,-45" style="fill:#a8a896;stroke:#a8a896;"></polygon><polygon stroke-linejoin="round" stroke-miterlimit="1" stroke-width="1" points="841,989 750,838 771,935" style="fill:#aba8ad;stroke:#aba8ad;"></polygon><polygon stroke-linejoin="round" stroke-miterlimit="1" stroke-width="1" points="841,-91 752,-35 822,207" style="fill:#a8a898;stroke:#a8a898;"></polygon><polygon stroke-linejoin="round" stroke-miterlimit="1" stroke-width="1" points="997,-45 841,-91 822,207" style="fill:#a8a898;stroke:#a8a898;"></polygon><polygon stroke-linejoin="round" stroke-miterlimit="1" stroke-width="1" points="1013,524 911,583 924,587" style="fill:#a9a8a3;stroke:#a9a8a3;"></polygon><polygon stroke-linejoin="round" stroke-miterlimit="1" stroke-width="1" points="1013,524 845,319 911,583" style="fill:#a9a8a1;stroke:#a9a8a1;"></polygon><polygon stroke-linejoin="round" stroke-miterlimit="1" stroke-width="1" points="963,654 911,583 786,680" style="fill:#aaa8a5;stroke:#aaa8a5;"></polygon><polygon stroke-linejoin="round" stroke-miterlimit="1" stroke-width="1" points="963,654 786,680 807,729" style="fill:#aaa8a7;stroke:#aaa8a7;"></polygon><polygon stroke-linejoin="round" stroke-miterlimit="1" stroke-width="1" points="963,654 924,587 911,583" style="fill:#aaa8a4;stroke:#aaa8a4;"></polygon><polygon stroke-linejoin="round" stroke-miterlimit="1" stroke-width="1" points="822,207 752,-35 692,73" style="fill:#a8a899;stroke:#a8a899;"></polygon><polygon stroke-linejoin="round" stroke-miterlimit="1" stroke-width="1" points="911,583 845,319 659,407" style="fill:#a9a8a2;stroke:#a9a8a2;"></polygon><polygon stroke-linejoin="round" stroke-miterlimit="1" stroke-width="1" points="911,583 659,407 683,623" style="fill:#aaa8a6;stroke:#aaa8a6;"></polygon><polygon stroke-linejoin="round" stroke-miterlimit="1" stroke-width="1" points="911,583 683,623 786,680" style="fill:#aaa8a8;stroke:#aaa8a8;"></polygon><polygon stroke-linejoin="round" stroke-miterlimit="1" stroke-width="1" points="771,935 692,944 649,989" style="fill:#aba8b2;stroke:#aba8b2;"></polygon><polygon stroke-linejoin="round" stroke-miterlimit="1" stroke-width="1" points="841,989 771,935 649,989" style="fill:#aba8ae;stroke:#aba8ae;"></polygon><polygon stroke-linejoin="round" stroke-miterlimit="1" stroke-width="1" points="845,319 697,264 681,278" style="fill:#a9a89e;stroke:#a9a89e;"></polygon><polygon stroke-linejoin="round" stroke-miterlimit="1" stroke-width="1" points="845,319 681,278 659,407" style="fill:#a9a8a0;stroke:#a9a8a0;"></polygon><polygon stroke-linejoin="round" stroke-miterlimit="1" stroke-width="1" points="845,319 822,207 697,264" style="fill:#a9a89d;stroke:#a9a89d;"></polygon><polygon stroke-linejoin="round" stroke-miterlimit="1" stroke-width="1" points="841,-91 737,-91 752,-35" style="fill:#a8a896;stroke:#a8a896;"></polygon><polygon stroke-linejoin="round" stroke-miterlimit="1" stroke-width="1" points="822,207 692,73 697,264" style="fill:#a8a89b;stroke:#a8a89b;"></polygon><polygon stroke-linejoin="round" stroke-miterlimit="1" stroke-width="1" points="807,729 786,680 750,838" style="fill:#aba8ac;stroke:#aba8ac;"></polygon><polygon stroke-linejoin="round" stroke-miterlimit="1" stroke-width="1" points="681,278 636,350 659,407" style="fill:#a9a8a1;stroke:#a9a8a1;"></polygon><polygon stroke-linejoin="round" stroke-miterlimit="1" stroke-width="1" points="771,935 750,838 692,944" style="fill:#aba8b0;stroke:#aba8b0;"></polygon><polygon stroke-linejoin="round" stroke-miterlimit="1" stroke-width="1" points="786,680 683,623 750,838" style="fill:#aba8ad;stroke:#aba8ad;"></polygon><polygon stroke-linejoin="round" stroke-miterlimit="1" stroke-width="1" points="697,264 692,73 574,220" style="fill:#a8a89c;stroke:#a8a89c;"></polygon><polygon stroke-linejoin="round" stroke-miterlimit="1" stroke-width="1" points="750,838 490,989 692,944" style="fill:#ada8ba;stroke:#ada8ba;"></polygon><polygon stroke-linejoin="round" stroke-miterlimit="1" stroke-width="1" points="750,838 683,623 490,989" style="fill:#aea8bb;stroke:#aea8bb;"></polygon><polygon stroke-linejoin="round" stroke-miterlimit="1" stroke-width="1" points="752,-35 737,-91 676,-74" style="fill:#a8a896;stroke:#a8a896;"></polygon><polygon stroke-linejoin="round" stroke-miterlimit="1" stroke-width="1" points="752,-35 676,-74 692,73" style="fill:#a8a897;stroke:#a8a897;"></polygon><polygon stroke-linejoin="round" stroke-miterlimit="1" stroke-width="1" points="683,623 388,577 490,989" style="fill:#b1a8ca;stroke:#b1a8ca;"></polygon><polygon stroke-linejoin="round" stroke-miterlimit="1" stroke-width="1" points="683,623 659,407 388,577" style="fill:#aba8ad;stroke:#aba8ad;"></polygon><polygon stroke-linejoin="round" stroke-miterlimit="1" stroke-width="1" points="692,73 520,179 574,220" style="fill:#a8a89b;stroke:#a8a89b;"></polygon><polygon stroke-linejoin="round" stroke-miterlimit="1" stroke-width="1" points="692,73 501,110 520,179" style="fill:#a8a89a;stroke:#a8a89a;"></polygon><polygon stroke-linejoin="round" stroke-miterlimit="1" stroke-width="1" points="692,73 676,-74 497,69" style="fill:#a8a898;stroke:#a8a898;"></polygon><polygon stroke-linejoin="round" stroke-miterlimit="1" stroke-width="1" points="692,944 490,989 649,989" style="fill:#ada8bc;stroke:#ada8bc;"></polygon><polygon stroke-linejoin="round" stroke-miterlimit="1" stroke-width="1" points="697,264 574,220 681,278" style="fill:#a9a89e;stroke:#a9a89e;"></polygon><polygon stroke-linejoin="round" stroke-miterlimit="1" stroke-width="1" points="692,73 497,69 501,110" style="fill:#a8a899;stroke:#a8a899;"></polygon><polygon stroke-linejoin="round" stroke-miterlimit="1" stroke-width="1" points="681,278 574,220 636,350" style="fill:#a9a89f;stroke:#a9a89f;"></polygon><polygon stroke-linejoin="round" stroke-miterlimit="1" stroke-width="1" points="676,-74 358,-91 497,69" style="fill:#a7a896;stroke:#a7a896;"></polygon><polygon stroke-linejoin="round" stroke-miterlimit="1" stroke-width="1" points="659,407 636,350 388,577" style="fill:#aaa8a7;stroke:#aaa8a7;"></polygon><polygon stroke-linejoin="round" stroke-miterlimit="1" stroke-width="1" points="490,989 388,577 363,989" style="fill:#baa9fa;stroke:#baa9fa;"></polygon><polygon stroke-linejoin="round" stroke-miterlimit="1" stroke-width="1" points="636,350 574,220 504,211" style="fill:#a9a89f;stroke:#a9a89f;"></polygon><polygon stroke-linejoin="round" stroke-miterlimit="1" stroke-width="1" points="636,350 504,211 388,577" style="fill:#a9a8a4;stroke:#a9a8a4;"></polygon><polygon stroke-linejoin="round" stroke-miterlimit="1" stroke-width="1" points="358,-91 126,-79 293,-72" style="fill:#a7a895;stroke:#a7a895;"></polygon><polygon stroke-linejoin="round" stroke-miterlimit="1" stroke-width="1" points="388,577 261,615 363,989" style="fill:#b1a8d5;stroke:#b1a8d5;"></polygon><polygon stroke-linejoin="round" stroke-miterlimit="1" stroke-width="1" points="574,220 520,179 504,211" style="fill:#a8a89d;stroke:#a8a89d;"></polygon><polygon stroke-linejoin="round" stroke-miterlimit="1" stroke-width="1" points="363,989 261,615 360,989" style="fill:#b3a8f8;stroke:#b3a8f8;"></polygon><polygon stroke-linejoin="round" stroke-miterlimit="1" stroke-width="1" points="504,211 126,472 388,577" style="fill:#aaa8a8;stroke:#aaa8a8;"></polygon><polygon stroke-linejoin="round" stroke-miterlimit="1" stroke-width="1" points="520,179 501,110 504,211" style="fill:#a8a89c;stroke:#a8a89c;"></polygon><polygon stroke-linejoin="round" stroke-miterlimit="1" stroke-width="1" points="504,211 501,110 81,141" style="fill:#a8a89b;stroke:#a8a89b;"></polygon><polygon stroke-linejoin="round" stroke-miterlimit="1" stroke-width="1" points="504,211 81,141 126,472" style="fill:#a8a89f;stroke:#a8a89f;"></polygon><polygon stroke-linejoin="round" stroke-miterlimit="1" stroke-width="1" points="293,-72 100,52 81,141" style="fill:#a7a897;stroke:#a7a897;"></polygon><polygon stroke-linejoin="round" stroke-miterlimit="1" stroke-width="1" points="501,110 497,69 293,-72" style="fill:#a8a898;stroke:#a8a898;"></polygon><polygon stroke-linejoin="round" stroke-miterlimit="1" stroke-width="1" points="501,110 293,-72 81,141" style="fill:#a7a898;stroke:#a7a898;"></polygon><polygon stroke-linejoin="round" stroke-miterlimit="1" stroke-width="1" points="497,69 358,-91 293,-72" style="fill:#a7a896;stroke:#a7a896;"></polygon><polygon stroke-linejoin="round" stroke-miterlimit="1" stroke-width="1" points="261,615 126,472 204,598" style="fill:#aaa8b3;stroke:#aaa8b3;"></polygon><polygon stroke-linejoin="round" stroke-miterlimit="1" stroke-width="1" points="360,989 261,615 12,687" style="fill:#aea8d9;stroke:#aea8d9;"></polygon><polygon stroke-linejoin="round" stroke-miterlimit="1" stroke-width="1" points="360,989 12,687 -46,833" style="fill:#aca8e1;stroke:#aca8e1;"></polygon><polygon stroke-linejoin="round" stroke-miterlimit="1" stroke-width="1" points="360,989 -46,833 -11,989" style="fill:#ada8fb;stroke:#ada8fb;"></polygon><polygon stroke-linejoin="round" stroke-miterlimit="1" stroke-width="1" points="388,577 126,472 261,615" style="fill:#aba8b3;stroke:#aba8b3;"></polygon><polygon stroke-linejoin="round" stroke-miterlimit="1" stroke-width="1" points="261,615 204,598 12,687" style="fill:#aba8ba;stroke:#aba8ba;"></polygon><polygon stroke-linejoin="round" stroke-miterlimit="1" stroke-width="1" points="293,-72 106,3 100,52" style="fill:#a7a896;stroke:#a7a896;"></polygon><polygon stroke-linejoin="round" stroke-miterlimit="1" stroke-width="1" points="293,-72 126,-79 106,3" style="fill:#a7a895;stroke:#a7a895;"></polygon><polygon stroke-linejoin="round" stroke-miterlimit="1" stroke-width="1" points="126,472 81,141 -40,148" style="fill:#a8a89c;stroke:#a8a89c;"></polygon><polygon stroke-linejoin="round" stroke-miterlimit="1" stroke-width="1" points="204,598 126,472 12,687" style="fill:#aaa8b2;stroke:#aaa8b2;"></polygon><polygon stroke-linejoin="round" stroke-miterlimit="1" stroke-width="1" points="126,-79 -55,-30 106,3" style="fill:#a7a894;stroke:#a7a894;"></polygon><polygon stroke-linejoin="round" stroke-miterlimit="1" stroke-width="1" points="126,-79 -167,-91 -55,-30" style="fill:#a7a893;stroke:#a7a893;"></polygon><polygon stroke-linejoin="round" stroke-miterlimit="1" stroke-width="1" points="126,472 -40,148 -167,271" style="fill:#a8a89c;stroke:#a8a89c;"></polygon><polygon stroke-linejoin="round" stroke-miterlimit="1" stroke-width="1" points="126,472 -167,271 -167,449" style="fill:#a8a89f;stroke:#a8a89f;"></polygon><polygon stroke-linejoin="round" stroke-miterlimit="1" stroke-width="1" points="126,472 -167,449 12,687" style="fill:#a9a8a8;stroke:#a9a8a8;"></polygon><polygon stroke-linejoin="round" stroke-miterlimit="1" stroke-width="1" points="-45,724 -56,814 -46,833" style="fill:#a9a8b8;stroke:#a9a8b8;"></polygon><polygon stroke-linejoin="round" stroke-miterlimit="1" stroke-width="1" points="12,687 -45,724 -46,833" style="fill:#a9a8b7;stroke:#a9a8b7;"></polygon><polygon stroke-linejoin="round" stroke-miterlimit="1" stroke-width="1" points="106,3 -55,-30 100,52" style="fill:#a7a895;stroke:#a7a895;"></polygon><polygon stroke-linejoin="round" stroke-miterlimit="1" stroke-width="1" points="100,52 -40,148 81,141" style="fill:#a7a898;stroke:#a7a898;"></polygon><polygon stroke-linejoin="round" stroke-miterlimit="1" stroke-width="1" points="100,52 -55,-30 -40,148" style="fill:#a7a896;stroke:#a7a896;"></polygon><polygon stroke-linejoin="round" stroke-miterlimit="1" stroke-width="1" points="-40,148 -55,-30 -149,50" style="fill:#a7a895;stroke:#a7a895;"></polygon><polygon stroke-linejoin="round" stroke-miterlimit="1" stroke-width="1" points="-40,148 -167,258 -167,271" style="fill:#a7a898;stroke:#a7a898;"></polygon><polygon stroke-linejoin="round" stroke-miterlimit="1" stroke-width="1" points="-11,989 -46,833 -124,926" style="fill:#a9a8bd;stroke:#a9a8bd;"></polygon><polygon stroke-linejoin="round" stroke-miterlimit="1" stroke-width="1" points="12,687 -167,678 -45,724" style="fill:#a9a8af;stroke:#a9a8af;"></polygon><polygon stroke-linejoin="round" stroke-miterlimit="1" stroke-width="1" points="12,687 -167,449 -167,678" style="fill:#a8a8a7;stroke:#a8a8a7;"></polygon><polygon stroke-linejoin="round" stroke-miterlimit="1" stroke-width="1" points="-11,989 -124,926 -167,989" style="fill:#a9a8b7;stroke:#a9a8b7;"></polygon><polygon stroke-linejoin="round" stroke-miterlimit="1" stroke-width="1" points="-46,833 -167,855 -124,926" style="fill:#a9a8b4;stroke:#a9a8b4;"></polygon><polygon stroke-linejoin="round" stroke-miterlimit="1" stroke-width="1" points="-45,724 -167,729 -56,814" style="fill:#a9a8b1;stroke:#a9a8b1;"></polygon><polygon stroke-linejoin="round" stroke-miterlimit="1" stroke-width="1" points="-40,148 -149,50 -167,82" style="fill:#a7a895;stroke:#a7a895;"></polygon><polygon stroke-linejoin="round" stroke-miterlimit="1" stroke-width="1" points="-40,148 -167,82 -167,258" style="fill:#a7a897;stroke:#a7a897;"></polygon><polygon stroke-linejoin="round" stroke-miterlimit="1" stroke-width="1" points="-46,833 -56,814 -167,855" style="fill:#a9a8b5;stroke:#a9a8b5;"></polygon><polygon stroke-linejoin="round" stroke-miterlimit="1" stroke-width="1" points="-45,724 -167,678 -167,729" style="fill:#a8a8ab;stroke:#a8a8ab;"></polygon><polygon stroke-linejoin="round" stroke-miterlimit="1" stroke-width="1" points="-56,814 -167,729 -167,855" style="fill:#a9a8af;stroke:#a9a8af;"></polygon><polygon stroke-linejoin="round" stroke-miterlimit="1" stroke-width="1" points="-55,-30 -167,-91 -149,50" style="fill:#a7a893;stroke:#a7a893;"></polygon><polygon stroke-linejoin="round" stroke-miterlimit="1" stroke-width="1" points="-124,926 -167,941 -167,989" style="fill:#a8a8b0;stroke:#a8a8b0;"></polygon><polygon stroke-linejoin="round" stroke-miterlimit="1" stroke-width="1" points="-124,926 -167,855 -167,941" style="fill:#a9a8af;stroke:#a9a8af;"></polygon><polygon stroke-linejoin="round" stroke-miterlimit="1" stroke-width="1" points="-149,50 -167,-91 -167,82" style="fill:#a7a893;stroke:#a7a893;"></polygon></svg>