
      <svg xmlns="http://www.w3.org/2000/svg" version="1.1" width="1680" height="900" style="display: block;"><polygon stroke-linejoin="round" stroke-miterlimit="1" stroke-width="1" points="1554,989 1409,950 1268,955" style="fill:#5e4b87;stroke:#5e4b87;"></polygon><polygon stroke-linejoin="round" stroke-miterlimit="1" stroke-width="1" points="1554,989 1268,955 841,989" style="fill:#734cda;stroke:#734cda;"></polygon><polygon stroke-linejoin="round" stroke-miterlimit="1" stroke-width="1" points="1814,-91 1117,-91 1478,-37" style="fill:#584b61;stroke:#584b61;"></polygon><polygon stroke-linejoin="round" stroke-miterlimit="1" stroke-width="1" points="1821,370 1764,203 1768,365" style="fill:#9b4dff;stroke:#9b4dff;"></polygon><polygon stroke-linejoin="round" stroke-miterlimit="1" stroke-width="1" points="1849,-74 1814,-91 1700,5" style="fill:#574b5c;stroke:#574b5c;"></polygon><polygon stroke-linejoin="round" stroke-miterlimit="1" stroke-width="1" points="1849,-74 1700,5 1764,203" style="fill:#654b98;stroke:#654b98;"></polygon><polygon stroke-linejoin="round" stroke-miterlimit="1" stroke-width="1" points="1849,-74 1764,203 1821,370" style="fill:#584b63;stroke:#584b63;"></polygon><polygon stroke-linejoin="round" stroke-miterlimit="1" stroke-width="1" points="1849,719 1849,683 1752,627" style="fill:#764cd4;stroke:#764cd4;"></polygon><polygon stroke-linejoin="round" stroke-miterlimit="1" stroke-width="1" points="1849,620 1752,627 1849,683" style="fill:#584b62;stroke:#584b62;"></polygon><polygon stroke-linejoin="round" stroke-miterlimit="1" stroke-width="1" points="1849,817 1752,627 1467,716" style="fill:#574b5c;stroke:#574b5c;"></polygon><polygon stroke-linejoin="round" stroke-miterlimit="1" stroke-width="1" points="1849,817 1467,716 1554,989" style="fill:#644b91;stroke:#644b91;"></polygon><polygon stroke-linejoin="round" stroke-miterlimit="1" stroke-width="1" points="1849,817 1849,719 1752,627" style="fill:#584b66;stroke:#584b66;"></polygon><polygon stroke-linejoin="round" stroke-miterlimit="1" stroke-width="1" points="1849,574 1752,627 1849,620" style="fill:#6b4bb7;stroke:#6b4bb7;"></polygon><polygon stroke-linejoin="round" stroke-miterlimit="1" stroke-width="1" points="1849,574 1849,562 1774,503" style="fill:#574b5c;stroke:#574b5c;"></polygon><polygon stroke-linejoin="round" stroke-miterlimit="1" stroke-width="1" points="1849,574 1774,503 1752,627" style="fill:#574b5c;stroke:#574b5c;"></polygon><polygon stroke-linejoin="round" stroke-miterlimit="1" stroke-width="1" points="1849,989 1849,817 1554,989" style="fill:#574b5c;stroke:#574b5c;"></polygon><polygon stroke-linejoin="round" stroke-miterlimit="1" stroke-width="1" points="1849,449 1821,370 1768,365" style="fill:#574b5c;stroke:#574b5c;"></polygon><polygon stroke-linejoin="round" stroke-miterlimit="1" stroke-width="1" points="1849,449 1768,365 1774,503" style="fill:#574b5c;stroke:#574b5c;"></polygon><polygon stroke-linejoin="round" stroke-miterlimit="1" stroke-width="1" points="1849,449 1774,503 1849,562" style="fill:#694ba6;stroke:#694ba6;"></polygon><polygon stroke-linejoin="round" stroke-miterlimit="1" stroke-width="1" points="1849,449 1849,-74 1821,370" style="fill:#af4eff;stroke:#af4eff;"></polygon><polygon stroke-linejoin="round" stroke-miterlimit="1" stroke-width="1" points="1849,-91 1814,-91 1849,-74" style="fill:#614b77;stroke:#614b77;"></polygon><polygon stroke-linejoin="round" stroke-miterlimit="1" stroke-width="1" points="1814,-91 1478,-37 1700,5" style="fill:#604b85;stroke:#604b85;"></polygon><polygon stroke-linejoin="round" stroke-miterlimit="1" stroke-width="1" points="1764,203 1425,88 1367,405" style="fill:#584b68;stroke:#584b68;"></polygon><polygon stroke-linejoin="round" stroke-miterlimit="1" stroke-width="1" points="1768,365 1764,203 1367,405" style="fill:#574b5c;stroke:#574b5c;"></polygon><polygon stroke-linejoin="round" stroke-miterlimit="1" stroke-width="1" points="1774,503 1464,634 1752,627" style="fill:#574b5c;stroke:#574b5c;"></polygon><polygon stroke-linejoin="round" stroke-miterlimit="1" stroke-width="1" points="1774,503 1768,365 1367,405" style="fill:#574b60;stroke:#574b60;"></polygon><polygon stroke-linejoin="round" stroke-miterlimit="1" stroke-width="1" points="1774,503 1367,405 1464,634" style="fill:#5e4b7e;stroke:#5e4b7e;"></polygon><polygon stroke-linejoin="round" stroke-miterlimit="1" stroke-width="1" points="1764,203 1700,5 1425,88" style="fill:#574b5c;stroke:#574b5c;"></polygon><polygon stroke-linejoin="round" stroke-miterlimit="1" stroke-width="1" points="1752,627 1464,634 1467,716" style="fill:#574b5c;stroke:#574b5c;"></polygon><polygon stroke-linejoin="round" stroke-miterlimit="1" stroke-width="1" points="1700,5 1478,-37 1425,88" style="fill:#604b90;stroke:#604b90;"></polygon><polygon stroke-linejoin="round" stroke-miterlimit="1" stroke-width="1" points="1425,88 1324,151 1367,405" style="fill:#5a4b71;stroke:#5a4b71;"></polygon><polygon stroke-linejoin="round" stroke-miterlimit="1" stroke-width="1" points="1467,716 1373,781 1409,950" style="fill:#584b6e;stroke:#584b6e;"></polygon><polygon stroke-linejoin="round" stroke-miterlimit="1" stroke-width="1" points="1554,989 1467,716 1409,950" style="fill:#574b5c;stroke:#574b5c;"></polygon><polygon stroke-linejoin="round" stroke-miterlimit="1" stroke-width="1" points="1409,950 1373,781 1337,928" style="fill:#734cbd;stroke:#734cbd;"></polygon><polygon stroke-linejoin="round" stroke-miterlimit="1" stroke-width="1" points="1464,634 1367,405 1178,652" style="fill:#584b66;stroke:#584b66;"></polygon><polygon stroke-linejoin="round" stroke-miterlimit="1" stroke-width="1" points="1467,716 1376,750 1373,781" style="fill:#764cd8;stroke:#764cd8;"></polygon><polygon stroke-linejoin="round" stroke-miterlimit="1" stroke-width="1" points="1478,-37 1250,67 1425,88" style="fill:#584b6d;stroke:#584b6d;"></polygon><polygon stroke-linejoin="round" stroke-miterlimit="1" stroke-width="1" points="1478,-37 1117,-91 1250,67" style="fill:#594b71;stroke:#594b71;"></polygon><polygon stroke-linejoin="round" stroke-miterlimit="1" stroke-width="1" points="1409,950 1288,944 1268,955" style="fill:#574b5c;stroke:#574b5c;"></polygon><polygon stroke-linejoin="round" stroke-miterlimit="1" stroke-width="1" points="1467,716 1464,634 1376,750" style="fill:#574b5c;stroke:#574b5c;"></polygon><polygon stroke-linejoin="round" stroke-miterlimit="1" stroke-width="1" points="1464,634 1178,652 1376,750" style="fill:#6a4bae;stroke:#6a4bae;"></polygon><polygon stroke-linejoin="round" stroke-miterlimit="1" stroke-width="1" points="1367,405 1324,151 1175,224" style="fill:#584b6f;stroke:#584b6f;"></polygon><polygon stroke-linejoin="round" stroke-miterlimit="1" stroke-width="1" points="1409,950 1337,928 1288,944" style="fill:#5f4b7f;stroke:#5f4b7f;"></polygon><polygon stroke-linejoin="round" stroke-miterlimit="1" stroke-width="1" points="1425,88 1250,67 1324,151" style="fill:#6e4bc2;stroke:#6e4bc2;"></polygon><polygon stroke-linejoin="round" stroke-miterlimit="1" stroke-width="1" points="1367,405 1110,490 1178,652" style="fill:#644b9d;stroke:#644b9d;"></polygon><polygon stroke-linejoin="round" stroke-miterlimit="1" stroke-width="1" points="1373,781 1288,944 1337,928" style="fill:#614b8d;stroke:#614b8d;"></polygon><polygon stroke-linejoin="round" stroke-miterlimit="1" stroke-width="1" points="1376,750 1178,652 1373,781" style="fill:#5e4b9d;stroke:#5e4b9d;"></polygon><polygon stroke-linejoin="round" stroke-miterlimit="1" stroke-width="1" points="1373,781 1178,652 1288,944" style="fill:#614b85;stroke:#614b85;"></polygon><polygon stroke-linejoin="round" stroke-miterlimit="1" stroke-width="1" points="1367,405 1175,224 1110,490" style="fill:#5c4b87;stroke:#5c4b87;"></polygon><polygon stroke-linejoin="round" stroke-miterlimit="1" stroke-width="1" points="1268,955 1178,652 1014,757" style="fill:#584b6c;stroke:#584b6c;"></polygon><polygon stroke-linejoin="round" stroke-miterlimit="1" stroke-width="1" points="1288,944 1178,652 1268,955" style="fill:#874ce1;stroke:#874ce1;"></polygon><polygon stroke-linejoin="round" stroke-miterlimit="1" stroke-width="1" points="1324,151 1179,171 1175,224" style="fill:#5d4b8d;stroke:#5d4b8d;"></polygon><polygon stroke-linejoin="round" stroke-miterlimit="1" stroke-width="1" points="1324,151 1250,67 1179,171" style="fill:#644ba7;stroke:#644ba7;"></polygon><polygon stroke-linejoin="round" stroke-miterlimit="1" stroke-width="1" points="1250,67 1117,-91 1077,10" style="fill:#594b71;stroke:#594b71;"></polygon><polygon stroke-linejoin="round" stroke-miterlimit="1" stroke-width="1" points="1268,955 1014,757 841,989" style="fill:#5a4b6e;stroke:#5a4b6e;"></polygon><polygon stroke-linejoin="round" stroke-miterlimit="1" stroke-width="1" points="1250,67 1077,10 1179,171" style="fill:#584b6f;stroke:#584b6f;"></polygon><polygon stroke-linejoin="round" stroke-miterlimit="1" stroke-width="1" points="1175,224 990,267 1110,490" style="fill:#5b4b91;stroke:#5b4b91;"></polygon><polygon stroke-linejoin="round" stroke-miterlimit="1" stroke-width="1" points="1178,652 1110,490 950,699" style="fill:#694baf;stroke:#694baf;"></polygon><polygon stroke-linejoin="round" stroke-miterlimit="1" stroke-width="1" points="1179,171 1057,139 1175,224" style="fill:#574b5c;stroke:#574b5c;"></polygon><polygon stroke-linejoin="round" stroke-miterlimit="1" stroke-width="1" points="1179,171 1077,10 1057,139" style="fill:#714ce5;stroke:#714ce5;"></polygon><polygon stroke-linejoin="round" stroke-miterlimit="1" stroke-width="1" points="1178,652 950,699 1014,757" style="fill:#584b69;stroke:#584b69;"></polygon><polygon stroke-linejoin="round" stroke-miterlimit="1" stroke-width="1" points="1175,224 1057,139 990,267" style="fill:#604bc4;stroke:#604bc4;"></polygon><polygon stroke-linejoin="round" stroke-miterlimit="1" stroke-width="1" points="1014,757 847,806 841,989" style="fill:#704bb4;stroke:#704bb4;"></polygon><polygon stroke-linejoin="round" stroke-miterlimit="1" stroke-width="1" points="1110,490 856,420 950,699" style="fill:#644ba6;stroke:#644ba6;"></polygon><polygon stroke-linejoin="round" stroke-miterlimit="1" stroke-width="1" points="1110,490 990,267 876,348" style="fill:#5e4bb1;stroke:#5e4bb1;"></polygon><polygon stroke-linejoin="round" stroke-miterlimit="1" stroke-width="1" points="1110,490 876,348 856,420" style="fill:#664b9b;stroke:#664b9b;"></polygon><polygon stroke-linejoin="round" stroke-miterlimit="1" stroke-width="1" points="1117,-91 965,24 1077,10" style="fill:#5f4b6f;stroke:#5f4b6f;"></polygon><polygon stroke-linejoin="round" stroke-miterlimit="1" stroke-width="1" points="1117,-91 841,-91 965,24" style="fill:#5f4b94;stroke:#5f4b94;"></polygon><polygon stroke-linejoin="round" stroke-miterlimit="1" stroke-width="1" points="1077,10 965,24 1057,139" style="fill:#584b6e;stroke:#584b6e;"></polygon><polygon stroke-linejoin="round" stroke-miterlimit="1" stroke-width="1" points="1057,139 872,181 990,267" style="fill:#664ceb;stroke:#664ceb;"></polygon><polygon stroke-linejoin="round" stroke-miterlimit="1" stroke-width="1" points="1057,139 965,24 872,181" style="fill:#614bd2;stroke:#614bd2;"></polygon><polygon stroke-linejoin="round" stroke-miterlimit="1" stroke-width="1" points="950,699 763,464 930,710" style="fill:#5f4b7d;stroke:#5f4b7d;"></polygon><polygon stroke-linejoin="round" stroke-miterlimit="1" stroke-width="1" points="950,699 856,420 763,464" style="fill:#694b89;stroke:#694b89;"></polygon><polygon stroke-linejoin="round" stroke-miterlimit="1" stroke-width="1" points="965,24 848,117 872,181" style="fill:#7d4cad;stroke:#7d4cad;"></polygon><polygon stroke-linejoin="round" stroke-miterlimit="1" stroke-width="1" points="990,267 872,181 888,238" style="fill:#684bd8;stroke:#684bd8;"></polygon><polygon stroke-linejoin="round" stroke-miterlimit="1" stroke-width="1" points="1014,757 950,699 930,710" style="fill:#5c4b62;stroke:#5c4b62;"></polygon><polygon stroke-linejoin="round" stroke-miterlimit="1" stroke-width="1" points="1014,757 930,710 847,806" style="fill:#574b5c;stroke:#574b5c;"></polygon><polygon stroke-linejoin="round" stroke-miterlimit="1" stroke-width="1" points="990,267 888,238 876,348" style="fill:#5e4bb1;stroke:#5e4bb1;"></polygon><polygon stroke-linejoin="round" stroke-miterlimit="1" stroke-width="1" points="965,24 777,32 848,117" style="fill:#5b4b91;stroke:#5b4b91;"></polygon><polygon stroke-linejoin="round" stroke-miterlimit="1" stroke-width="1" points="965,24 841,-91 777,32" style="fill:#674b8a;stroke:#674b8a;"></polygon><polygon stroke-linejoin="round" stroke-miterlimit="1" stroke-width="1" points="930,710 763,464 704,755" style="fill:#684ba8;stroke:#684ba8;"></polygon><polygon stroke-linejoin="round" stroke-miterlimit="1" stroke-width="1" points="930,710 704,755 847,806" style="fill:#574b5c;stroke:#574b5c;"></polygon><polygon stroke-linejoin="round" stroke-miterlimit="1" stroke-width="1" points="847,806 784,989 841,989" style="fill:#5a4b7b;stroke:#5a4b7b;"></polygon><polygon stroke-linejoin="round" stroke-miterlimit="1" stroke-width="1" points="876,348 659,60 763,464" style="fill:#614b89;stroke:#614b89;"></polygon><polygon stroke-linejoin="round" stroke-miterlimit="1" stroke-width="1" points="888,238 659,60 876,348" style="fill:#5f4ba8;stroke:#5f4ba8;"></polygon><polygon stroke-linejoin="round" stroke-miterlimit="1" stroke-width="1" points="888,238 872,181 659,60" style="fill:#6a4b96;stroke:#6a4b96;"></polygon><polygon stroke-linejoin="round" stroke-miterlimit="1" stroke-width="1" points="876,348 763,464 856,420" style="fill:#594b75;stroke:#594b75;"></polygon><polygon stroke-linejoin="round" stroke-miterlimit="1" stroke-width="1" points="841,-91 765,-91 777,32" style="fill:#644b7a;stroke:#644b7a;"></polygon><polygon stroke-linejoin="round" stroke-miterlimit="1" stroke-width="1" points="872,181 848,117 659,60" style="fill:#6f4ba1;stroke:#6f4ba1;"></polygon><polygon stroke-linejoin="round" stroke-miterlimit="1" stroke-width="1" points="847,806 704,755 784,989" style="fill:#634b81;stroke:#634b81;"></polygon><polygon stroke-linejoin="round" stroke-miterlimit="1" stroke-width="1" points="848,117 777,32 659,60" style="fill:#594b77;stroke:#594b77;"></polygon><polygon stroke-linejoin="round" stroke-miterlimit="1" stroke-width="1" points="763,464 659,60 449,446" style="fill:#624b88;stroke:#624b88;"></polygon><polygon stroke-linejoin="round" stroke-miterlimit="1" stroke-width="1" points="704,755 549,852 635,989" style="fill:#624ba0;stroke:#624ba0;"></polygon><polygon stroke-linejoin="round" stroke-miterlimit="1" stroke-width="1" points="763,464 539,714 704,755" style="fill:#584b6a;stroke:#584b6a;"></polygon><polygon stroke-linejoin="round" stroke-miterlimit="1" stroke-width="1" points="777,32 765,-91 660,-91" style="fill:#5c4b9b;stroke:#5c4b9b;"></polygon><polygon stroke-linejoin="round" stroke-miterlimit="1" stroke-width="1" points="777,32 660,-91 659,60" style="fill:#604b71;stroke:#604b71;"></polygon><polygon stroke-linejoin="round" stroke-miterlimit="1" stroke-width="1" points="784,989 704,755 635,989" style="fill:#6d4b93;stroke:#6d4b93;"></polygon><polygon stroke-linejoin="round" stroke-miterlimit="1" stroke-width="1" points="763,464 449,446 539,714" style="fill:#5b4b72;stroke:#5b4b72;"></polygon><polygon stroke-linejoin="round" stroke-miterlimit="1" stroke-width="1" points="449,446 437,38 316,133" style="fill:#6c4b89;stroke:#6c4b89;"></polygon><polygon stroke-linejoin="round" stroke-miterlimit="1" stroke-width="1" points="659,60 437,38 449,446" style="fill:#5f4b97;stroke:#5f4b97;"></polygon><polygon stroke-linejoin="round" stroke-miterlimit="1" stroke-width="1" points="660,-91 659,-91 659,60" style="fill:#6d4cff;stroke:#6d4cff;"></polygon><polygon stroke-linejoin="round" stroke-miterlimit="1" stroke-width="1" points="704,755 539,714 549,852" style="fill:#574b60;stroke:#574b60;"></polygon><polygon stroke-linejoin="round" stroke-miterlimit="1" stroke-width="1" points="635,989 549,852 576,989" style="fill:#654b77;stroke:#654b77;"></polygon><polygon stroke-linejoin="round" stroke-miterlimit="1" stroke-width="1" points="659,-91 340,-91 346,-79" style="fill:#5a4b63;stroke:#5a4b63;"></polygon><polygon stroke-linejoin="round" stroke-miterlimit="1" stroke-width="1" points="659,60 659,-91 437,38" style="fill:#674b7e;stroke:#674b7e;"></polygon><polygon stroke-linejoin="round" stroke-miterlimit="1" stroke-width="1" points="659,-91 346,-79 437,38" style="fill:#654ba6;stroke:#654ba6;"></polygon><polygon stroke-linejoin="round" stroke-miterlimit="1" stroke-width="1" points="576,989 549,852 412,989" style="fill:#6b4bb6;stroke:#6b4bb6;"></polygon><polygon stroke-linejoin="round" stroke-miterlimit="1" stroke-width="1" points="539,714 449,446 240,577" style="fill:#594b68;stroke:#594b68;"></polygon><polygon stroke-linejoin="round" stroke-miterlimit="1" stroke-width="1" points="549,852 539,714 244,817" style="fill:#5a4b67;stroke:#5a4b67;"></polygon><polygon stroke-linejoin="round" stroke-miterlimit="1" stroke-width="1" points="549,852 244,817 412,989" style="fill:#574b5c;stroke:#574b5c;"></polygon><polygon stroke-linejoin="round" stroke-miterlimit="1" stroke-width="1" points="539,714 240,577 244,817" style="fill:#624b7b;stroke:#624b7b;"></polygon><polygon stroke-linejoin="round" stroke-miterlimit="1" stroke-width="1" points="316,133 189,134 99,472" style="fill:#644b7f;stroke:#644b7f;"></polygon><polygon stroke-linejoin="round" stroke-miterlimit="1" stroke-width="1" points="412,989 241,876 -117,989" style="fill:#6b4b9f;stroke:#6b4b9f;"></polygon><polygon stroke-linejoin="round" stroke-miterlimit="1" stroke-width="1" points="412,989 244,817 241,876" style="fill:#694ba2;stroke:#694ba2;"></polygon><polygon stroke-linejoin="round" stroke-miterlimit="1" stroke-width="1" points="437,38 345,54 316,133" style="fill:#734c9f;stroke:#734c9f;"></polygon><polygon stroke-linejoin="round" stroke-miterlimit="1" stroke-width="1" points="437,38 346,-79 345,54" style="fill:#6a4bae;stroke:#6a4bae;"></polygon><polygon stroke-linejoin="round" stroke-miterlimit="1" stroke-width="1" points="449,446 316,133 99,472" style="fill:#644b77;stroke:#644b77;"></polygon><polygon stroke-linejoin="round" stroke-miterlimit="1" stroke-width="1" points="449,446 99,472 240,577" style="fill:#634b7f;stroke:#634b7f;"></polygon><polygon stroke-linejoin="round" stroke-miterlimit="1" stroke-width="1" points="241,876 187,849 -108,971" style="fill:#574b5c;stroke:#574b5c;"></polygon><polygon stroke-linejoin="round" stroke-miterlimit="1" stroke-width="1" points="241,876 -108,971 -117,989" style="fill:#984dff;stroke:#984dff;"></polygon><polygon stroke-linejoin="round" stroke-miterlimit="1" stroke-width="1" points="244,817 240,577 155,685" style="fill:#574b5c;stroke:#574b5c;"></polygon><polygon stroke-linejoin="round" stroke-miterlimit="1" stroke-width="1" points="340,-91 175,-26 209,-25" style="fill:#674b8a;stroke:#674b8a;"></polygon><polygon stroke-linejoin="round" stroke-miterlimit="1" stroke-width="1" points="340,-91 35,-91 175,-26" style="fill:#7d4cce;stroke:#7d4cce;"></polygon><polygon stroke-linejoin="round" stroke-miterlimit="1" stroke-width="1" points="346,-79 209,-25 345,54" style="fill:#674ba7;stroke:#674ba7;"></polygon><polygon stroke-linejoin="round" stroke-miterlimit="1" stroke-width="1" points="346,-79 340,-91 209,-25" style="fill:#6b4b93;stroke:#6b4b93;"></polygon><polygon stroke-linejoin="round" stroke-miterlimit="1" stroke-width="1" points="345,54 189,134 316,133" style="fill:#704c98;stroke:#704c98;"></polygon><polygon stroke-linejoin="round" stroke-miterlimit="1" stroke-width="1" points="345,54 209,-25 189,134" style="fill:#6c4b89;stroke:#6c4b89;"></polygon><polygon stroke-linejoin="round" stroke-miterlimit="1" stroke-width="1" points="187,849 155,685 111,707" style="fill:#6a4ba3;stroke:#6a4ba3;"></polygon><polygon stroke-linejoin="round" stroke-miterlimit="1" stroke-width="1" points="189,134 -39,211 99,472" style="fill:#6a4b80;stroke:#6a4b80;"></polygon><polygon stroke-linejoin="round" stroke-miterlimit="1" stroke-width="1" points="209,-25 175,-26 189,134" style="fill:#944cd9;stroke:#944cd9;"></polygon><polygon stroke-linejoin="round" stroke-miterlimit="1" stroke-width="1" points="244,817 187,849 241,876" style="fill:#904dff;stroke:#904dff;"></polygon><polygon stroke-linejoin="round" stroke-miterlimit="1" stroke-width="1" points="244,817 155,685 187,849" style="fill:#5d4b67;stroke:#5d4b67;"></polygon><polygon stroke-linejoin="round" stroke-miterlimit="1" stroke-width="1" points="240,577 99,472 155,685" style="fill:#5c4b6d;stroke:#5c4b6d;"></polygon><polygon stroke-linejoin="round" stroke-miterlimit="1" stroke-width="1" points="155,685 99,472 111,707" style="fill:#6d4ce1;stroke:#6d4ce1;"></polygon><polygon stroke-linejoin="round" stroke-miterlimit="1" stroke-width="1" points="187,849 -92,801 -108,971" style="fill:#5a4b66;stroke:#5a4b66;"></polygon><polygon stroke-linejoin="round" stroke-miterlimit="1" stroke-width="1" points="189,134 175,-26 35,-91" style="fill:#774caf;stroke:#774caf;"></polygon><polygon stroke-linejoin="round" stroke-miterlimit="1" stroke-width="1" points="189,134 35,-91 -39,211" style="fill:#6b4b9d;stroke:#6b4b9d;"></polygon><polygon stroke-linejoin="round" stroke-miterlimit="1" stroke-width="1" points="187,849 111,707 -92,801" style="fill:#5a4b69;stroke:#5a4b69;"></polygon><polygon stroke-linejoin="round" stroke-miterlimit="1" stroke-width="1" points="-39,211 -167,306 -167,408" style="fill:#5d4b67;stroke:#5d4b67;"></polygon><polygon stroke-linejoin="round" stroke-miterlimit="1" stroke-width="1" points="35,-91 -167,83 -39,211" style="fill:#704ba3;stroke:#704ba3;"></polygon><polygon stroke-linejoin="round" stroke-miterlimit="1" stroke-width="1" points="35,-91 -167,16 -167,83" style="fill:#6f4baa;stroke:#6f4baa;"></polygon><polygon stroke-linejoin="round" stroke-miterlimit="1" stroke-width="1" points="99,472 -39,211 -167,408" style="fill:#6a4ba5;stroke:#6a4ba5;"></polygon><polygon stroke-linejoin="round" stroke-miterlimit="1" stroke-width="1" points="99,472 -167,408 -143,479" style="fill:#574b5c;stroke:#574b5c;"></polygon><polygon stroke-linejoin="round" stroke-miterlimit="1" stroke-width="1" points="111,707 99,472 -143,479" style="fill:#614b8a;stroke:#614b8a;"></polygon><polygon stroke-linejoin="round" stroke-miterlimit="1" stroke-width="1" points="111,707 -143,479 -92,801" style="fill:#634b7e;stroke:#634b7e;"></polygon><polygon stroke-linejoin="round" stroke-miterlimit="1" stroke-width="1" points="35,-91 -167,-91 -167,16" style="fill:#684b83;stroke:#684b83;"></polygon><polygon stroke-linejoin="round" stroke-miterlimit="1" stroke-width="1" points="-92,801 -143,479 -167,811" style="fill:#5a4b69;stroke:#5a4b69;"></polygon><polygon stroke-linejoin="round" stroke-miterlimit="1" stroke-width="1" points="-92,801 -147,852 -108,971" style="fill:#634ba3;stroke:#634ba3;"></polygon><polygon stroke-linejoin="round" stroke-miterlimit="1" stroke-width="1" points="-39,211 -167,150 -167,306" style="fill:#774ba6;stroke:#774ba6;"></polygon><polygon stroke-linejoin="round" stroke-miterlimit="1" stroke-width="1" points="-39,211 -167,83 -167,150" style="fill:#7a4cc0;stroke:#7a4cc0;"></polygon><polygon stroke-linejoin="round" stroke-miterlimit="1" stroke-width="1" points="-143,479 -167,408 -167,449" style="fill:#a94eff;stroke:#a94eff;"></polygon><polygon stroke-linejoin="round" stroke-miterlimit="1" stroke-width="1" points="-108,971 -147,852 -167,954" style="fill:#594b70;stroke:#594b70;"></polygon><polygon stroke-linejoin="round" stroke-miterlimit="1" stroke-width="1" points="-92,801 -159,841 -147,852" style="fill:#724cfe;stroke:#724cfe;"></polygon><polygon stroke-linejoin="round" stroke-miterlimit="1" stroke-width="1" points="-92,801 -167,811 -159,841" style="fill:#574b5c;stroke:#574b5c;"></polygon><polygon stroke-linejoin="round" stroke-miterlimit="1" stroke-width="1" points="-143,479 -167,449 -167,811" style="fill:#784cff;stroke:#784cff;"></polygon><polygon stroke-linejoin="round" stroke-miterlimit="1" stroke-width="1" points="-108,971 -138,989 -117,989" style="fill:#664bc4;stroke:#664bc4;"></polygon><polygon stroke-linejoin="round" stroke-miterlimit="1" stroke-width="1" points="-108,971 -167,954 -138,989" style="fill:#874cff;stroke:#874cff;"></polygon><polygon stroke-linejoin="round" stroke-miterlimit="1" stroke-width="1" points="-147,852 -159,841 -167,954" style="fill:#614b87;stroke:#614b87;"></polygon><polygon stroke-linejoin="round" stroke-miterlimit="1" stroke-width="1" points="-138,989 -167,954 -167,989" style="fill:#574b5c;stroke:#574b5c;"></polygon><polygon stroke-linejoin="round" stroke-miterlimit="1" stroke-width="1" points="-159,841 -167,811 -167,954" style="fill:#574b5c;stroke:#574b5c;"></polygon></svg>