
      <svg xmlns="http://www.w3.org/2000/svg" version="1.1" width="2000" height="1000" style="display: block;"><polygon stroke-linejoin="round" stroke-miterlimit="1" stroke-width="1" points="1001,1099 308,1060 75,1099" style="fill:#b0a8e5;stroke:#b0a8e5;"></polygon><polygon stroke-linejoin="round" stroke-miterlimit="1" stroke-width="1" points="2085,1099 1611,1071 1356,1099" style="fill:#a9a8ac;stroke:#a9a8ac;"></polygon><polygon stroke-linejoin="round" stroke-miterlimit="1" stroke-width="1" points="2085,1099 1797,1012 1611,1071" style="fill:#aaa8ba;stroke:#aaa8ba;"></polygon><polygon stroke-linejoin="round" stroke-miterlimit="1" stroke-width="1" points="2196,776 2064,959 2187,1049" style="fill:#aba9cd;stroke:#aba9cd;"></polygon><polygon stroke-linejoin="round" stroke-miterlimit="1" stroke-width="1" points="2196,776 2080,758 2064,959" style="fill:#aba8bb;stroke:#aba8bb;"></polygon><polygon stroke-linejoin="round" stroke-miterlimit="1" stroke-width="1" points="2201,1 2183,-9 2105,129" style="fill:#b0a8a9;stroke:#b0a8a9;"></polygon><polygon stroke-linejoin="round" stroke-miterlimit="1" stroke-width="1" points="2201,-30 2183,-9 2201,1" style="fill:#ada8a3;stroke:#ada8a3;"></polygon><polygon stroke-linejoin="round" stroke-miterlimit="1" stroke-width="1" points="2201,703 2080,758 2196,776" style="fill:#aba8b2;stroke:#aba8b2;"></polygon><polygon stroke-linejoin="round" stroke-miterlimit="1" stroke-width="1" points="2201,703 2201,692 2111,626" style="fill:#aca8ae;stroke:#aca8ae;"></polygon><polygon stroke-linejoin="round" stroke-miterlimit="1" stroke-width="1" points="2201,703 2111,626 2080,758" style="fill:#aca8b0;stroke:#aca8b0;"></polygon><polygon stroke-linejoin="round" stroke-miterlimit="1" stroke-width="1" points="2201,-60 2183,-9 2201,-30" style="fill:#ada8a1;stroke:#ada8a1;"></polygon><polygon stroke-linejoin="round" stroke-miterlimit="1" stroke-width="1" points="2201,-60 1983,-101 2183,-9" style="fill:#ada8a1;stroke:#ada8a1;"></polygon><polygon stroke-linejoin="round" stroke-miterlimit="1" stroke-width="1" points="2201,648 2111,626 2201,692" style="fill:#aca8ad;stroke:#aca8ad;"></polygon><polygon stroke-linejoin="round" stroke-miterlimit="1" stroke-width="1" points="2201,282 2064,352 2181,419" style="fill:#baa9c6;stroke:#baa9c6;"></polygon><polygon stroke-linejoin="round" stroke-miterlimit="1" stroke-width="1" points="2201,282 2105,129 2064,352" style="fill:#cfa9f6;stroke:#cfa9f6;"></polygon><polygon stroke-linejoin="round" stroke-miterlimit="1" stroke-width="1" points="2201,282 2201,1 2105,129" style="fill:#b6a8b8;stroke:#b6a8b8;"></polygon><polygon stroke-linejoin="round" stroke-miterlimit="1" stroke-width="1" points="2201,1099 2187,1049 2085,1099" style="fill:#ada9ff;stroke:#ada9ff;"></polygon><polygon stroke-linejoin="round" stroke-miterlimit="1" stroke-width="1" points="2201,1099 2201,703 2196,776" style="fill:#aba8ba;stroke:#aba8ba;"></polygon><polygon stroke-linejoin="round" stroke-miterlimit="1" stroke-width="1" points="2201,1099 2196,776 2187,1049" style="fill:#aba9d1;stroke:#aba9d1;"></polygon><polygon stroke-linejoin="round" stroke-miterlimit="1" stroke-width="1" points="2201,499 2181,419 2015,541" style="fill:#b0a8b1;stroke:#b0a8b1;"></polygon><polygon stroke-linejoin="round" stroke-miterlimit="1" stroke-width="1" points="2201,499 2015,541 2111,626" style="fill:#aea8af;stroke:#aea8af;"></polygon><polygon stroke-linejoin="round" stroke-miterlimit="1" stroke-width="1" points="2201,499 2111,626 2201,648" style="fill:#ada8ad;stroke:#ada8ad;"></polygon><polygon stroke-linejoin="round" stroke-miterlimit="1" stroke-width="1" points="2201,499 2201,282 2181,419" style="fill:#b3a8b6;stroke:#b3a8b6;"></polygon><polygon stroke-linejoin="round" stroke-miterlimit="1" stroke-width="1" points="2201,-101 1983,-101 2201,-60" style="fill:#aca89f;stroke:#aca89f;"></polygon><polygon stroke-linejoin="round" stroke-miterlimit="1" stroke-width="1" points="2181,419 2064,352 2015,541" style="fill:#b3a8b7;stroke:#b3a8b7;"></polygon><polygon stroke-linejoin="round" stroke-miterlimit="1" stroke-width="1" points="2187,1049 2064,959 2085,1099" style="fill:#aea9ff;stroke:#aea9ff;"></polygon><polygon stroke-linejoin="round" stroke-miterlimit="1" stroke-width="1" points="2183,-9 1983,-101 2105,129" style="fill:#afa8a6;stroke:#afa8a6;"></polygon><polygon stroke-linejoin="round" stroke-miterlimit="1" stroke-width="1" points="2080,758 1933,814 2064,959" style="fill:#aba8bd;stroke:#aba8bd;"></polygon><polygon stroke-linejoin="round" stroke-miterlimit="1" stroke-width="1" points="2105,129 1937,134 2064,352" style="fill:#c1a9d4;stroke:#c1a9d4;"></polygon><polygon stroke-linejoin="round" stroke-miterlimit="1" stroke-width="1" points="2105,129 1983,-101 1937,134" style="fill:#b0a8ab;stroke:#b0a8ab;"></polygon><polygon stroke-linejoin="round" stroke-miterlimit="1" stroke-width="1" points="2111,626 1993,634 2080,758" style="fill:#aca8af;stroke:#aca8af;"></polygon><polygon stroke-linejoin="round" stroke-miterlimit="1" stroke-width="1" points="2111,626 2015,541 1993,634" style="fill:#ada8ae;stroke:#ada8ae;"></polygon><polygon stroke-linejoin="round" stroke-miterlimit="1" stroke-width="1" points="854,-101 307,-101 641,-78" style="fill:#a8a897;stroke:#a8a897;"></polygon><polygon stroke-linejoin="round" stroke-miterlimit="1" stroke-width="1" points="2064,959 1933,814 1915,915" style="fill:#aba8c2;stroke:#aba8c2;"></polygon><polygon stroke-linejoin="round" stroke-miterlimit="1" stroke-width="1" points="2085,1099 2064,959 1915,915" style="fill:#aca9e7;stroke:#aca9e7;"></polygon><polygon stroke-linejoin="round" stroke-miterlimit="1" stroke-width="1" points="2085,1099 1915,915 1797,1012" style="fill:#aba9cd;stroke:#aba9cd;"></polygon><polygon stroke-linejoin="round" stroke-miterlimit="1" stroke-width="1" points="2080,758 1993,634 1933,814" style="fill:#aba8b2;stroke:#aba8b2;"></polygon><polygon stroke-linejoin="round" stroke-miterlimit="1" stroke-width="1" points="2064,352 1778,265 2015,541" style="fill:#b2a8b5;stroke:#b2a8b5;"></polygon><polygon stroke-linejoin="round" stroke-miterlimit="1" stroke-width="1" points="2064,352 1937,134 1778,265" style="fill:#b4a8b6;stroke:#b4a8b6;"></polygon><polygon stroke-linejoin="round" stroke-miterlimit="1" stroke-width="1" points="1993,634 1849,777 1933,814" style="fill:#aba8b0;stroke:#aba8b0;"></polygon><polygon stroke-linejoin="round" stroke-miterlimit="1" stroke-width="1" points="2015,541 1690,506 1993,634" style="fill:#ada8ac;stroke:#ada8ac;"></polygon><polygon stroke-linejoin="round" stroke-miterlimit="1" stroke-width="1" points="2015,541 1778,265 1690,506" style="fill:#ada8aa;stroke:#ada8aa;"></polygon><polygon stroke-linejoin="round" stroke-miterlimit="1" stroke-width="1" points="1983,-101 1577,40 1937,134" style="fill:#aca8a1;stroke:#aca8a1;"></polygon><polygon stroke-linejoin="round" stroke-miterlimit="1" stroke-width="1" points="1983,-101 1458,-101 1521,-17" style="fill:#aaa89b;stroke:#aaa89b;"></polygon><polygon stroke-linejoin="round" stroke-miterlimit="1" stroke-width="1" points="1993,634 1690,506 1849,777" style="fill:#aba8ab;stroke:#aba8ab;"></polygon><polygon stroke-linejoin="round" stroke-miterlimit="1" stroke-width="1" points="1983,-101 1521,-17 1577,40" style="fill:#aaa89c;stroke:#aaa89c;"></polygon><polygon stroke-linejoin="round" stroke-miterlimit="1" stroke-width="1" points="1797,1012 1630,1052 1611,1071" style="fill:#a9a8ac;stroke:#a9a8ac;"></polygon><polygon stroke-linejoin="round" stroke-miterlimit="1" stroke-width="1" points="1933,814 1849,777 1915,915" style="fill:#aba8b5;stroke:#aba8b5;"></polygon><polygon stroke-linejoin="round" stroke-miterlimit="1" stroke-width="1" points="1937,134 1577,40 1778,265" style="fill:#ada8a3;stroke:#ada8a3;"></polygon><polygon stroke-linejoin="round" stroke-miterlimit="1" stroke-width="1" points="1915,915 1849,777 1741,960" style="fill:#aaa8b3;stroke:#aaa8b3;"></polygon><polygon stroke-linejoin="round" stroke-miterlimit="1" stroke-width="1" points="1915,915 1741,960 1797,1012" style="fill:#aaa8b6;stroke:#aaa8b6;"></polygon><polygon stroke-linejoin="round" stroke-miterlimit="1" stroke-width="1" points="1778,265 1622,389 1690,506" style="fill:#aca8a5;stroke:#aca8a5;"></polygon><polygon stroke-linejoin="round" stroke-miterlimit="1" stroke-width="1" points="1849,777 1481,828 1741,960" style="fill:#aaa8aa;stroke:#aaa8aa;"></polygon><polygon stroke-linejoin="round" stroke-miterlimit="1" stroke-width="1" points="1849,777 1546,629 1481,828" style="fill:#aaa8a7;stroke:#aaa8a7;"></polygon><polygon stroke-linejoin="round" stroke-miterlimit="1" stroke-width="1" points="1849,777 1690,506 1546,629" style="fill:#aba8a7;stroke:#aba8a7;"></polygon><polygon stroke-linejoin="round" stroke-miterlimit="1" stroke-width="1" points="1778,265 1577,40 1523,277" style="fill:#aba8a0;stroke:#aba8a0;"></polygon><polygon stroke-linejoin="round" stroke-miterlimit="1" stroke-width="1" points="1797,1012 1741,960 1630,1052" style="fill:#aaa8ae;stroke:#aaa8ae;"></polygon><polygon stroke-linejoin="round" stroke-miterlimit="1" stroke-width="1" points="1778,265 1523,277 1622,389" style="fill:#aba8a2;stroke:#aba8a2;"></polygon><polygon stroke-linejoin="round" stroke-miterlimit="1" stroke-width="1" points="1741,960 1501,969 1630,1052" style="fill:#a9a8a9;stroke:#a9a8a9;"></polygon><polygon stroke-linejoin="round" stroke-miterlimit="1" stroke-width="1" points="1741,960 1481,828 1501,969" style="fill:#a9a8a7;stroke:#a9a8a7;"></polygon><polygon stroke-linejoin="round" stroke-miterlimit="1" stroke-width="1" points="289,-101 -199,-101 71,-84" style="fill:#a7a895;stroke:#a7a895;"></polygon><polygon stroke-linejoin="round" stroke-miterlimit="1" stroke-width="1" points="1690,506 1520,551 1546,629" style="fill:#aaa8a4;stroke:#aaa8a4;"></polygon><polygon stroke-linejoin="round" stroke-miterlimit="1" stroke-width="1" points="1690,506 1543,480 1520,551" style="fill:#aaa8a3;stroke:#aaa8a3;"></polygon><polygon stroke-linejoin="round" stroke-miterlimit="1" stroke-width="1" points="1690,506 1622,389 1543,480" style="fill:#aba8a3;stroke:#aba8a3;"></polygon><polygon stroke-linejoin="round" stroke-miterlimit="1" stroke-width="1" points="1577,40 1455,22 1523,277" style="fill:#aaa89d;stroke:#aaa89d;"></polygon><polygon stroke-linejoin="round" stroke-miterlimit="1" stroke-width="1" points="1630,1052 1501,969 1611,1071" style="fill:#a9a8a8;stroke:#a9a8a8;"></polygon><polygon stroke-linejoin="round" stroke-miterlimit="1" stroke-width="1" points="1622,389 1523,277 1543,480" style="fill:#aaa8a2;stroke:#aaa8a2;"></polygon><polygon stroke-linejoin="round" stroke-miterlimit="1" stroke-width="1" points="1611,1071 1501,969 1356,1099" style="fill:#a9a8a5;stroke:#a9a8a5;"></polygon><polygon stroke-linejoin="round" stroke-miterlimit="1" stroke-width="1" points="1577,40 1521,-17 1455,22" style="fill:#a9a89b;stroke:#a9a89b;"></polygon><polygon stroke-linejoin="round" stroke-miterlimit="1" stroke-width="1" points="1523,277 1455,22 1254,24" style="fill:#a9a89c;stroke:#a9a89c;"></polygon><polygon stroke-linejoin="round" stroke-miterlimit="1" stroke-width="1" points="1543,480 1523,277 1235,376" style="fill:#aaa8a0;stroke:#aaa8a0;"></polygon><polygon stroke-linejoin="round" stroke-miterlimit="1" stroke-width="1" points="1546,629 1348,771 1481,828" style="fill:#aaa8a4;stroke:#aaa8a4;"></polygon><polygon stroke-linejoin="round" stroke-miterlimit="1" stroke-width="1" points="1546,629 1349,636 1348,771" style="fill:#aaa8a3;stroke:#aaa8a3;"></polygon><polygon stroke-linejoin="round" stroke-miterlimit="1" stroke-width="1" points="1546,629 1520,551 1349,636" style="fill:#aaa8a3;stroke:#aaa8a3;"></polygon><polygon stroke-linejoin="round" stroke-miterlimit="1" stroke-width="1" points="1543,480 1235,376 1520,551" style="fill:#aaa8a1;stroke:#aaa8a1;"></polygon><polygon stroke-linejoin="round" stroke-miterlimit="1" stroke-width="1" points="1501,969 1481,828 1377,914" style="fill:#a9a8a5;stroke:#a9a8a5;"></polygon><polygon stroke-linejoin="round" stroke-miterlimit="1" stroke-width="1" points="1520,551 1235,376 1349,636" style="fill:#aaa8a1;stroke:#aaa8a1;"></polygon><polygon stroke-linejoin="round" stroke-miterlimit="1" stroke-width="1" points="1521,-17 1458,-101 1455,22" style="fill:#a9a89a;stroke:#a9a89a;"></polygon><polygon stroke-linejoin="round" stroke-miterlimit="1" stroke-width="1" points="1523,277 1254,24 1235,376" style="fill:#a9a89d;stroke:#a9a89d;"></polygon><polygon stroke-linejoin="round" stroke-miterlimit="1" stroke-width="1" points="1481,828 1348,771 1371,826" style="fill:#a9a8a4;stroke:#a9a8a4;"></polygon><polygon stroke-linejoin="round" stroke-miterlimit="1" stroke-width="1" points="1501,969 1377,914 1356,1099" style="fill:#a9a8a5;stroke:#a9a8a5;"></polygon><polygon stroke-linejoin="round" stroke-miterlimit="1" stroke-width="1" points="1481,828 1371,826 1377,914" style="fill:#a9a8a4;stroke:#a9a8a4;"></polygon><polygon stroke-linejoin="round" stroke-miterlimit="1" stroke-width="1" points="1458,-101 1254,24 1455,22" style="fill:#a9a899;stroke:#a9a899;"></polygon><polygon stroke-linejoin="round" stroke-miterlimit="1" stroke-width="1" points="1458,-101 1207,-101 1254,24" style="fill:#a8a898;stroke:#a8a898;"></polygon><polygon stroke-linejoin="round" stroke-miterlimit="1" stroke-width="1" points="1001,1099 672,997 308,1060" style="fill:#afa8c6;stroke:#afa8c6;"></polygon><polygon stroke-linejoin="round" stroke-miterlimit="1" stroke-width="1" points="1254,24 1089,211 1235,376" style="fill:#a9a89c;stroke:#a9a89c;"></polygon><polygon stroke-linejoin="round" stroke-miterlimit="1" stroke-width="1" points="1349,636 1235,376 1146,596" style="fill:#a9a8a1;stroke:#a9a8a1;"></polygon><polygon stroke-linejoin="round" stroke-miterlimit="1" stroke-width="1" points="1377,914 1261,1099 1300,1099" style="fill:#a9a8a4;stroke:#a9a8a4;"></polygon><polygon stroke-linejoin="round" stroke-miterlimit="1" stroke-width="1" points="1377,914 1169,873 1261,1099" style="fill:#a9a8a4;stroke:#a9a8a4;"></polygon><polygon stroke-linejoin="round" stroke-miterlimit="1" stroke-width="1" points="1377,914 1371,826 1169,873" style="fill:#a9a8a4;stroke:#a9a8a4;"></polygon><polygon stroke-linejoin="round" stroke-miterlimit="1" stroke-width="1" points="1377,914 1300,1099 1356,1099" style="fill:#a9a8a4;stroke:#a9a8a4;"></polygon><polygon stroke-linejoin="round" stroke-miterlimit="1" stroke-width="1" points="1377,914 1356,1099 1356,1099" style="fill:#a3a879;stroke:#a3a879;"></polygon><polygon stroke-linejoin="round" stroke-miterlimit="1" stroke-width="1" points="1371,826 1348,771 1169,873" style="fill:#a9a8a4;stroke:#a9a8a4;"></polygon><polygon stroke-linejoin="round" stroke-miterlimit="1" stroke-width="1" points="1349,636 1146,596 1348,771" style="fill:#a9a8a3;stroke:#a9a8a3;"></polygon><polygon stroke-linejoin="round" stroke-miterlimit="1" stroke-width="1" points="1348,771 1146,596 1169,873" style="fill:#a9a8a4;stroke:#a9a8a4;"></polygon><polygon stroke-linejoin="round" stroke-miterlimit="1" stroke-width="1" points="1235,376 1089,211 1124,347" style="fill:#a9a89e;stroke:#a9a89e;"></polygon><polygon stroke-linejoin="round" stroke-miterlimit="1" stroke-width="1" points="1254,24 1072,79 1089,211" style="fill:#a9a89b;stroke:#a9a89b;"></polygon><polygon stroke-linejoin="round" stroke-miterlimit="1" stroke-width="1" points="1261,1099 1169,873 1098,1043" style="fill:#a9a8a5;stroke:#a9a8a5;"></polygon><polygon stroke-linejoin="round" stroke-miterlimit="1" stroke-width="1" points="1235,376 1060,497 1146,596" style="fill:#a9a8a1;stroke:#a9a8a1;"></polygon><polygon stroke-linejoin="round" stroke-miterlimit="1" stroke-width="1" points="1235,376 1124,347 1060,497" style="fill:#a9a8a0;stroke:#a9a8a0;"></polygon><polygon stroke-linejoin="round" stroke-miterlimit="1" stroke-width="1" points="1254,24 1160,0 1072,79" style="fill:#a8a899;stroke:#a8a899;"></polygon><polygon stroke-linejoin="round" stroke-miterlimit="1" stroke-width="1" points="1254,24 1207,-101 1160,0" style="fill:#a8a898;stroke:#a8a898;"></polygon><polygon stroke-linejoin="round" stroke-miterlimit="1" stroke-width="1" points="1261,1099 1098,1043 1095,1099" style="fill:#a9a8a5;stroke:#a9a8a5;"></polygon><polygon stroke-linejoin="round" stroke-miterlimit="1" stroke-width="1" points="1169,873 1146,596 973,825" style="fill:#aaa8a6;stroke:#aaa8a6;"></polygon><polygon stroke-linejoin="round" stroke-miterlimit="1" stroke-width="1" points="1207,-101 1140,-36 1160,0" style="fill:#a8a898;stroke:#a8a898;"></polygon><polygon stroke-linejoin="round" stroke-miterlimit="1" stroke-width="1" points="1169,873 1028,944 1098,1043" style="fill:#aaa8a7;stroke:#aaa8a7;"></polygon><polygon stroke-linejoin="round" stroke-miterlimit="1" stroke-width="1" points="1207,-101 1088,-101 1140,-36" style="fill:#a8a898;stroke:#a8a898;"></polygon><polygon stroke-linejoin="round" stroke-miterlimit="1" stroke-width="1" points="1146,596 946,807 973,825" style="fill:#aaa8a8;stroke:#aaa8a8;"></polygon><polygon stroke-linejoin="round" stroke-miterlimit="1" stroke-width="1" points="1169,873 973,825 1028,944" style="fill:#aaa8a8;stroke:#aaa8a8;"></polygon><polygon stroke-linejoin="round" stroke-miterlimit="1" stroke-width="1" points="1146,596 937,535 946,807" style="fill:#aaa8a6;stroke:#aaa8a6;"></polygon><polygon stroke-linejoin="round" stroke-miterlimit="1" stroke-width="1" points="1160,0 1140,-36 1072,79" style="fill:#a8a899;stroke:#a8a899;"></polygon><polygon stroke-linejoin="round" stroke-miterlimit="1" stroke-width="1" points="1140,-36 1088,-101 1076,-61" style="fill:#a8a898;stroke:#a8a898;"></polygon><polygon stroke-linejoin="round" stroke-miterlimit="1" stroke-width="1" points="1140,-36 1076,-61 1072,79" style="fill:#a8a899;stroke:#a8a899;"></polygon><polygon stroke-linejoin="round" stroke-miterlimit="1" stroke-width="1" points="1146,596 1060,497 937,535" style="fill:#aaa8a3;stroke:#aaa8a3;"></polygon><polygon stroke-linejoin="round" stroke-miterlimit="1" stroke-width="1" points="1124,347 963,448 1060,497" style="fill:#a9a8a1;stroke:#a9a8a1;"></polygon><polygon stroke-linejoin="round" stroke-miterlimit="1" stroke-width="1" points="1124,347 953,362 963,448" style="fill:#a9a8a0;stroke:#a9a8a0;"></polygon><polygon stroke-linejoin="round" stroke-miterlimit="1" stroke-width="1" points="1124,347 1089,211 953,362" style="fill:#a9a89e;stroke:#a9a89e;"></polygon><polygon stroke-linejoin="round" stroke-miterlimit="1" stroke-width="1" points="1076,-61 903,26 1072,79" style="fill:#a8a899;stroke:#a8a899;"></polygon><polygon stroke-linejoin="round" stroke-miterlimit="1" stroke-width="1" points="1089,211 1072,79 950,163" style="fill:#a9a89b;stroke:#a9a89b;"></polygon><polygon stroke-linejoin="round" stroke-miterlimit="1" stroke-width="1" points="1089,211 950,163 953,362" style="fill:#a9a89e;stroke:#a9a89e;"></polygon><polygon stroke-linejoin="round" stroke-miterlimit="1" stroke-width="1" points="1098,1043 1001,1099 1095,1099" style="fill:#aaa8a7;stroke:#aaa8a7;"></polygon><polygon stroke-linejoin="round" stroke-miterlimit="1" stroke-width="1" points="1098,1043 1028,944 1001,1099" style="fill:#aaa8a8;stroke:#aaa8a8;"></polygon><polygon stroke-linejoin="round" stroke-miterlimit="1" stroke-width="1" points="1076,-61 1001,-101 903,26" style="fill:#a8a898;stroke:#a8a898;"></polygon><polygon stroke-linejoin="round" stroke-miterlimit="1" stroke-width="1" points="1088,-101 1001,-101 1076,-61" style="fill:#a8a897;stroke:#a8a897;"></polygon><polygon stroke-linejoin="round" stroke-miterlimit="1" stroke-width="1" points="953,362 950,163 876,262" style="fill:#a9a89e;stroke:#a9a89e;"></polygon><polygon stroke-linejoin="round" stroke-miterlimit="1" stroke-width="1" points="1060,497 971,487 937,535" style="fill:#aaa8a3;stroke:#aaa8a3;"></polygon><polygon stroke-linejoin="round" stroke-miterlimit="1" stroke-width="1" points="1060,497 963,448 971,487" style="fill:#a9a8a3;stroke:#a9a8a3;"></polygon><polygon stroke-linejoin="round" stroke-miterlimit="1" stroke-width="1" points="1072,79 903,26 950,163" style="fill:#a8a89a;stroke:#a8a89a;"></polygon><polygon stroke-linejoin="round" stroke-miterlimit="1" stroke-width="1" points="1001,1099 792,977 672,997" style="fill:#aca8b4;stroke:#aca8b4;"></polygon><polygon stroke-linejoin="round" stroke-miterlimit="1" stroke-width="1" points="1001,-101 886,-54 903,26" style="fill:#a8a898;stroke:#a8a898;"></polygon><polygon stroke-linejoin="round" stroke-miterlimit="1" stroke-width="1" points="1028,944 792,977 1001,1099" style="fill:#aba8ad;stroke:#aba8ad;"></polygon><polygon stroke-linejoin="round" stroke-miterlimit="1" stroke-width="1" points="1028,944 973,825 792,977" style="fill:#aba8ad;stroke:#aba8ad;"></polygon><polygon stroke-linejoin="round" stroke-miterlimit="1" stroke-width="1" points="946,807 937,535 818,819" style="fill:#aba8ac;stroke:#aba8ac;"></polygon><polygon stroke-linejoin="round" stroke-miterlimit="1" stroke-width="1" points="946,807 818,819 792,977" style="fill:#aca8b2;stroke:#aca8b2;"></polygon><polygon stroke-linejoin="round" stroke-miterlimit="1" stroke-width="1" points="950,163 903,26 915,158" style="fill:#a8a89b;stroke:#a8a89b;"></polygon><polygon stroke-linejoin="round" stroke-miterlimit="1" stroke-width="1" points="973,825 946,807 792,977" style="fill:#aba8af;stroke:#aba8af;"></polygon><polygon stroke-linejoin="round" stroke-miterlimit="1" stroke-width="1" points="1001,-101 854,-101 886,-54" style="fill:#a8a897;stroke:#a8a897;"></polygon><polygon stroke-linejoin="round" stroke-miterlimit="1" stroke-width="1" points="937,535 666,677 818,819" style="fill:#aba8af;stroke:#aba8af;"></polygon><polygon stroke-linejoin="round" stroke-miterlimit="1" stroke-width="1" points="950,163 915,158 876,262" style="fill:#a9a89d;stroke:#a9a89d;"></polygon><polygon stroke-linejoin="round" stroke-miterlimit="1" stroke-width="1" points="953,362 876,262 919,368" style="fill:#a9a8a0;stroke:#a9a8a0;"></polygon><polygon stroke-linejoin="round" stroke-miterlimit="1" stroke-width="1" points="963,448 953,362 919,368" style="fill:#a9a8a1;stroke:#a9a8a1;"></polygon><polygon stroke-linejoin="round" stroke-miterlimit="1" stroke-width="1" points="971,487 963,448 937,535" style="fill:#aaa8a4;stroke:#aaa8a4;"></polygon><polygon stroke-linejoin="round" stroke-miterlimit="1" stroke-width="1" points="963,448 847,398 937,535" style="fill:#aaa8a4;stroke:#aaa8a4;"></polygon><polygon stroke-linejoin="round" stroke-miterlimit="1" stroke-width="1" points="963,448 919,368 847,398" style="fill:#a9a8a2;stroke:#a9a8a2;"></polygon><polygon stroke-linejoin="round" stroke-miterlimit="1" stroke-width="1" points="915,158 903,26 816,180" style="fill:#a8a89b;stroke:#a8a89b;"></polygon><polygon stroke-linejoin="round" stroke-miterlimit="1" stroke-width="1" points="937,535 847,398 666,677" style="fill:#aaa8a8;stroke:#aaa8a8;"></polygon><polygon stroke-linejoin="round" stroke-miterlimit="1" stroke-width="1" points="915,158 816,180 876,262" style="fill:#a9a89d;stroke:#a9a89d;"></polygon><polygon stroke-linejoin="round" stroke-miterlimit="1" stroke-width="1" points="919,368 876,262 847,398" style="fill:#a9a8a1;stroke:#a9a8a1;"></polygon><polygon stroke-linejoin="round" stroke-miterlimit="1" stroke-width="1" points="903,26 886,-54 748,-51" style="fill:#a8a898;stroke:#a8a898;"></polygon><polygon stroke-linejoin="round" stroke-miterlimit="1" stroke-width="1" points="903,26 748,-51 816,180" style="fill:#a8a89a;stroke:#a8a89a;"></polygon><polygon stroke-linejoin="round" stroke-miterlimit="1" stroke-width="1" points="847,398 622,374 666,677" style="fill:#aaa8a9;stroke:#aaa8a9;"></polygon><polygon stroke-linejoin="round" stroke-miterlimit="1" stroke-width="1" points="854,-101 641,-78 748,-51" style="fill:#a8a898;stroke:#a8a898;"></polygon><polygon stroke-linejoin="round" stroke-miterlimit="1" stroke-width="1" points="876,262 765,263 847,398" style="fill:#a9a8a0;stroke:#a9a8a0;"></polygon><polygon stroke-linejoin="round" stroke-miterlimit="1" stroke-width="1" points="886,-54 854,-101 748,-51" style="fill:#a8a898;stroke:#a8a898;"></polygon><polygon stroke-linejoin="round" stroke-miterlimit="1" stroke-width="1" points="876,262 816,180 765,263" style="fill:#a9a89e;stroke:#a9a89e;"></polygon><polygon stroke-linejoin="round" stroke-miterlimit="1" stroke-width="1" points="818,819 706,969 792,977" style="fill:#ada8bb;stroke:#ada8bb;"></polygon><polygon stroke-linejoin="round" stroke-miterlimit="1" stroke-width="1" points="847,398 765,263 622,374" style="fill:#a9a8a2;stroke:#a9a8a2;"></polygon><polygon stroke-linejoin="round" stroke-miterlimit="1" stroke-width="1" points="792,977 706,969 672,997" style="fill:#aea8c1;stroke:#aea8c1;"></polygon><polygon stroke-linejoin="round" stroke-miterlimit="1" stroke-width="1" points="816,180 748,-51 585,213" style="fill:#a8a89c;stroke:#a8a89c;"></polygon><polygon stroke-linejoin="round" stroke-miterlimit="1" stroke-width="1" points="818,819 652,963 706,969" style="fill:#afa8c1;stroke:#afa8c1;"></polygon><polygon stroke-linejoin="round" stroke-miterlimit="1" stroke-width="1" points="818,819 666,677 652,963" style="fill:#afa8c0;stroke:#afa8c0;"></polygon><polygon stroke-linejoin="round" stroke-miterlimit="1" stroke-width="1" points="816,180 585,213 765,263" style="fill:#a9a89f;stroke:#a9a89f;"></polygon><polygon stroke-linejoin="round" stroke-miterlimit="1" stroke-width="1" points="666,677 546,721 652,963" style="fill:#b1a8cb;stroke:#b1a8cb;"></polygon><polygon stroke-linejoin="round" stroke-miterlimit="1" stroke-width="1" points="672,997 358,1010 308,1060" style="fill:#b3a8f2;stroke:#b3a8f2;"></polygon><polygon stroke-linejoin="round" stroke-miterlimit="1" stroke-width="1" points="748,-51 641,-78 585,213" style="fill:#a8a89a;stroke:#a8a89a;"></polygon><polygon stroke-linejoin="round" stroke-miterlimit="1" stroke-width="1" points="765,263 585,213 622,374" style="fill:#a9a8a1;stroke:#a9a8a1;"></polygon><polygon stroke-linejoin="round" stroke-miterlimit="1" stroke-width="1" points="666,677 622,374 406,615" style="fill:#aba8b1;stroke:#aba8b1;"></polygon><polygon stroke-linejoin="round" stroke-miterlimit="1" stroke-width="1" points="666,677 406,615 546,721" style="fill:#aea8bf;stroke:#aea8bf;"></polygon><polygon stroke-linejoin="round" stroke-miterlimit="1" stroke-width="1" points="706,969 652,963 672,997" style="fill:#b0a8c9;stroke:#b0a8c9;"></polygon><polygon stroke-linejoin="round" stroke-miterlimit="1" stroke-width="1" points="641,-78 362,89 585,213" style="fill:#a8a89b;stroke:#a8a89b;"></polygon><polygon stroke-linejoin="round" stroke-miterlimit="1" stroke-width="1" points="652,963 546,721 427,845" style="fill:#b9a9eb;stroke:#b9a9eb;"></polygon><polygon stroke-linejoin="round" stroke-miterlimit="1" stroke-width="1" points="672,997 652,963 358,1010" style="fill:#b5a8e3;stroke:#b5a8e3;"></polygon><polygon stroke-linejoin="round" stroke-miterlimit="1" stroke-width="1" points="652,963 427,845 358,1010" style="fill:#b9a9fa;stroke:#b9a9fa;"></polygon><polygon stroke-linejoin="round" stroke-miterlimit="1" stroke-width="1" points="622,374 337,378 406,615" style="fill:#aaa8ab;stroke:#aaa8ab;"></polygon><polygon stroke-linejoin="round" stroke-miterlimit="1" stroke-width="1" points="641,-78 307,-101 362,89" style="fill:#a8a898;stroke:#a8a898;"></polygon><polygon stroke-linejoin="round" stroke-miterlimit="1" stroke-width="1" points="585,213 397,268 394,315" style="fill:#a9a8a1;stroke:#a9a8a1;"></polygon><polygon stroke-linejoin="round" stroke-miterlimit="1" stroke-width="1" points="622,374 394,315 337,378" style="fill:#a9a8a5;stroke:#a9a8a5;"></polygon><polygon stroke-linejoin="round" stroke-miterlimit="1" stroke-width="1" points="622,374 585,213 394,315" style="fill:#a9a8a2;stroke:#a9a8a2;"></polygon><polygon stroke-linejoin="round" stroke-miterlimit="1" stroke-width="1" points="585,213 356,124 397,268" style="fill:#a8a89f;stroke:#a8a89f;"></polygon><polygon stroke-linejoin="round" stroke-miterlimit="1" stroke-width="1" points="585,213 362,89 356,124" style="fill:#a8a89d;stroke:#a8a89d;"></polygon><polygon stroke-linejoin="round" stroke-miterlimit="1" stroke-width="1" points="362,89 307,-101 326,64" style="fill:#a8a899;stroke:#a8a899;"></polygon><polygon stroke-linejoin="round" stroke-miterlimit="1" stroke-width="1" points="546,721 395,742 427,845" style="fill:#b2a8d6;stroke:#b2a8d6;"></polygon><polygon stroke-linejoin="round" stroke-miterlimit="1" stroke-width="1" points="546,721 406,615 395,742" style="fill:#aea8c6;stroke:#aea8c6;"></polygon><polygon stroke-linejoin="round" stroke-miterlimit="1" stroke-width="1" points="326,64 307,-101 264,-63" style="fill:#a7a898;stroke:#a7a898;"></polygon><polygon stroke-linejoin="round" stroke-miterlimit="1" stroke-width="1" points="395,742 323,741 304,861" style="fill:#afa8d6;stroke:#afa8d6;"></polygon><polygon stroke-linejoin="round" stroke-miterlimit="1" stroke-width="1" points="397,268 356,124 303,140" style="fill:#a8a89e;stroke:#a8a89e;"></polygon><polygon stroke-linejoin="round" stroke-miterlimit="1" stroke-width="1" points="406,615 337,378 283,430" style="fill:#aaa8ac;stroke:#aaa8ac;"></polygon><polygon stroke-linejoin="round" stroke-miterlimit="1" stroke-width="1" points="406,615 283,430 267,554" style="fill:#aaa8b1;stroke:#aaa8b1;"></polygon><polygon stroke-linejoin="round" stroke-miterlimit="1" stroke-width="1" points="406,615 323,741 395,742" style="fill:#aea8c7;stroke:#aea8c7;"></polygon><polygon stroke-linejoin="round" stroke-miterlimit="1" stroke-width="1" points="427,845 395,742 304,861" style="fill:#b1a8e0;stroke:#b1a8e0;"></polygon><polygon stroke-linejoin="round" stroke-miterlimit="1" stroke-width="1" points="427,845 304,861 358,1010" style="fill:#b2a8f8;stroke:#b2a8f8;"></polygon><polygon stroke-linejoin="round" stroke-miterlimit="1" stroke-width="1" points="406,615 267,554 323,741" style="fill:#aca8bc;stroke:#aca8bc;"></polygon><polygon stroke-linejoin="round" stroke-miterlimit="1" stroke-width="1" points="397,268 337,378 394,315" style="fill:#a9a8a3;stroke:#a9a8a3;"></polygon><polygon stroke-linejoin="round" stroke-miterlimit="1" stroke-width="1" points="397,268 253,387 337,378" style="fill:#a9a8a4;stroke:#a9a8a4;"></polygon><polygon stroke-linejoin="round" stroke-miterlimit="1" stroke-width="1" points="397,268 303,140 253,387" style="fill:#a8a8a1;stroke:#a8a8a1;"></polygon><polygon stroke-linejoin="round" stroke-miterlimit="1" stroke-width="1" points="283,430 243,509 267,554" style="fill:#aaa8ad;stroke:#aaa8ad;"></polygon><polygon stroke-linejoin="round" stroke-miterlimit="1" stroke-width="1" points="323,741 267,554 197,617" style="fill:#aba8bb;stroke:#aba8bb;"></polygon><polygon stroke-linejoin="round" stroke-miterlimit="1" stroke-width="1" points="337,378 253,387 287,394" style="fill:#a9a8a6;stroke:#a9a8a6;"></polygon><polygon stroke-linejoin="round" stroke-miterlimit="1" stroke-width="1" points="337,378 287,394 283,430" style="fill:#a9a8a7;stroke:#a9a8a7;"></polygon><polygon stroke-linejoin="round" stroke-miterlimit="1" stroke-width="1" points="358,1010 159,943 308,1060" style="fill:#b1a9ff;stroke:#b1a9ff;"></polygon><polygon stroke-linejoin="round" stroke-miterlimit="1" stroke-width="1" points="358,1010 304,861 159,943" style="fill:#b0a8ff;stroke:#b0a8ff;"></polygon><polygon stroke-linejoin="round" stroke-miterlimit="1" stroke-width="1" points="362,89 326,64 356,124" style="fill:#a8a89b;stroke:#a8a89b;"></polygon><polygon stroke-linejoin="round" stroke-miterlimit="1" stroke-width="1" points="356,124 326,64 303,140" style="fill:#a8a89b;stroke:#a8a89b;"></polygon><polygon stroke-linejoin="round" stroke-miterlimit="1" stroke-width="1" points="283,430 253,442 243,509" style="fill:#aaa8ab;stroke:#aaa8ab;"></polygon><polygon stroke-linejoin="round" stroke-miterlimit="1" stroke-width="1" points="303,140 76,69 253,387" style="fill:#a8a89d;stroke:#a8a89d;"></polygon><polygon stroke-linejoin="round" stroke-miterlimit="1" stroke-width="1" points="307,-101 289,-101 264,-63" style="fill:#a7a896;stroke:#a7a896;"></polygon><polygon stroke-linejoin="round" stroke-miterlimit="1" stroke-width="1" points="323,741 121,823 304,861" style="fill:#aea8da;stroke:#aea8da;"></polygon><polygon stroke-linejoin="round" stroke-miterlimit="1" stroke-width="1" points="326,64 76,69 303,140" style="fill:#a8a89a;stroke:#a8a89a;"></polygon><polygon stroke-linejoin="round" stroke-miterlimit="1" stroke-width="1" points="326,64 264,-63 76,69" style="fill:#a7a899;stroke:#a7a899;"></polygon><polygon stroke-linejoin="round" stroke-miterlimit="1" stroke-width="1" points="323,741 197,617 121,823" style="fill:#aca8c6;stroke:#aca8c6;"></polygon><polygon stroke-linejoin="round" stroke-miterlimit="1" stroke-width="1" points="308,1060 159,943 75,1099" style="fill:#afa8ff;stroke:#afa8ff;"></polygon><polygon stroke-linejoin="round" stroke-miterlimit="1" stroke-width="1" points="304,861 121,823 159,943" style="fill:#ada8eb;stroke:#ada8eb;"></polygon><polygon stroke-linejoin="round" stroke-miterlimit="1" stroke-width="1" points="287,394 253,387 283,430" style="fill:#a9a8a7;stroke:#a9a8a7;"></polygon><polygon stroke-linejoin="round" stroke-miterlimit="1" stroke-width="1" points="289,-101 71,-84 264,-63" style="fill:#a7a896;stroke:#a7a896;"></polygon><polygon stroke-linejoin="round" stroke-miterlimit="1" stroke-width="1" points="283,430 253,387 253,442" style="fill:#a9a8a8;stroke:#a9a8a8;"></polygon><polygon stroke-linejoin="round" stroke-miterlimit="1" stroke-width="1" points="253,387 76,69 218,449" style="fill:#a8a8a1;stroke:#a8a8a1;"></polygon><polygon stroke-linejoin="round" stroke-miterlimit="1" stroke-width="1" points="253,442 218,449 243,509" style="fill:#a9a8ab;stroke:#a9a8ab;"></polygon><polygon stroke-linejoin="round" stroke-miterlimit="1" stroke-width="1" points="264,-63 71,-84 76,69" style="fill:#a7a897;stroke:#a7a897;"></polygon><polygon stroke-linejoin="round" stroke-miterlimit="1" stroke-width="1" points="267,554 243,509 197,617" style="fill:#aaa8b2;stroke:#aaa8b2;"></polygon><polygon stroke-linejoin="round" stroke-miterlimit="1" stroke-width="1" points="218,449 76,69 -199,399" style="fill:#a8a89f;stroke:#a8a89f;"></polygon><polygon stroke-linejoin="round" stroke-miterlimit="1" stroke-width="1" points="253,442 253,387 218,449" style="fill:#a9a8a8;stroke:#a9a8a8;"></polygon><polygon stroke-linejoin="round" stroke-miterlimit="1" stroke-width="1" points="243,509 218,449 197,617" style="fill:#aaa8af;stroke:#aaa8af;"></polygon><polygon stroke-linejoin="round" stroke-miterlimit="1" stroke-width="1" points="76,69 -199,172 -199,399" style="fill:#a7a89a;stroke:#a7a89a;"></polygon><polygon stroke-linejoin="round" stroke-miterlimit="1" stroke-width="1" points="197,617 -11,641 121,823" style="fill:#aaa8ba;stroke:#aaa8ba;"></polygon><polygon stroke-linejoin="round" stroke-miterlimit="1" stroke-width="1" points="218,449 -11,641 197,617" style="fill:#aaa8b0;stroke:#aaa8b0;"></polygon><polygon stroke-linejoin="round" stroke-miterlimit="1" stroke-width="1" points="218,449 -199,399 -11,641" style="fill:#a9a8a6;stroke:#a9a8a6;"></polygon><polygon stroke-linejoin="round" stroke-miterlimit="1" stroke-width="1" points="-11,641 -199,399 -199,499" style="fill:#a8a8a2;stroke:#a8a8a2;"></polygon><polygon stroke-linejoin="round" stroke-miterlimit="1" stroke-width="1" points="159,943 121,823 -100,856" style="fill:#aba8ce;stroke:#aba8ce;"></polygon><polygon stroke-linejoin="round" stroke-miterlimit="1" stroke-width="1" points="159,943 -100,856 75,1099" style="fill:#aba8d7;stroke:#aba8d7;"></polygon><polygon stroke-linejoin="round" stroke-miterlimit="1" stroke-width="1" points="121,823 -11,641 -100,856" style="fill:#aaa8ba;stroke:#aaa8ba;"></polygon><polygon stroke-linejoin="round" stroke-miterlimit="1" stroke-width="1" points="71,-84 -199,-91 -191,66" style="fill:#a7a895;stroke:#a7a895;"></polygon><polygon stroke-linejoin="round" stroke-miterlimit="1" stroke-width="1" points="75,1099 -100,856 -199,1099" style="fill:#a9a8bd;stroke:#a9a8bd;"></polygon><polygon stroke-linejoin="round" stroke-miterlimit="1" stroke-width="1" points="76,69 71,-84 -191,66" style="fill:#a7a896;stroke:#a7a896;"></polygon><polygon stroke-linejoin="round" stroke-miterlimit="1" stroke-width="1" points="76,69 -191,66 -199,172" style="fill:#a7a897;stroke:#a7a897;"></polygon><polygon stroke-linejoin="round" stroke-miterlimit="1" stroke-width="1" points="71,-84 -199,-93 -199,-91" style="fill:#a7a894;stroke:#a7a894;"></polygon><polygon stroke-linejoin="round" stroke-miterlimit="1" stroke-width="1" points="71,-84 -199,-101 -199,-93" style="fill:#a7a894;stroke:#a7a894;"></polygon><polygon stroke-linejoin="round" stroke-miterlimit="1" stroke-width="1" points="-11,641 -199,543 -182,620" style="fill:#a8a8a6;stroke:#a8a8a6;"></polygon><polygon stroke-linejoin="round" stroke-miterlimit="1" stroke-width="1" points="-11,641 -199,499 -199,543" style="fill:#a8a8a4;stroke:#a8a8a4;"></polygon><polygon stroke-linejoin="round" stroke-miterlimit="1" stroke-width="1" points="-11,641 -199,661 -100,856" style="fill:#a9a8ad;stroke:#a9a8ad;"></polygon><polygon stroke-linejoin="round" stroke-miterlimit="1" stroke-width="1" points="-11,641 -182,620 -199,661" style="fill:#a8a8a8;stroke:#a8a8a8;"></polygon><polygon stroke-linejoin="round" stroke-miterlimit="1" stroke-width="1" points="-182,620 -199,543 -199,589" style="fill:#a8a8a3;stroke:#a8a8a3;"></polygon><polygon stroke-linejoin="round" stroke-miterlimit="1" stroke-width="1" points="-100,856 -199,661 -199,1099" style="fill:#a9a8af;stroke:#a9a8af;"></polygon><polygon stroke-linejoin="round" stroke-miterlimit="1" stroke-width="1" points="-182,620 -199,589 -199,661" style="fill:#a8a8a4;stroke:#a8a8a4;"></polygon><polygon stroke-linejoin="round" stroke-miterlimit="1" stroke-width="1" points="-191,66 -199,-91 -199,172" style="fill:#a7a895;stroke:#a7a895;"></polygon></svg>