
      <svg xmlns="http://www.w3.org/2000/svg" version="1.1" width="2000" height="1000" style="display: block;"><polygon stroke-linejoin="round" stroke-miterlimit="1" stroke-width="1" points="267,1099 239,1098 -96,1099" style="fill:#574b5c;stroke:#574b5c;"></polygon><polygon stroke-linejoin="round" stroke-miterlimit="1" stroke-width="1" points="782,1099 501,1096 267,1099" style="fill:#d44fff;stroke:#d44fff;"></polygon><polygon stroke-linejoin="round" stroke-miterlimit="1" stroke-width="1" points="1792,-101 1001,-101 1689,-54" style="fill:#584b65;stroke:#584b65;"></polygon><polygon stroke-linejoin="round" stroke-miterlimit="1" stroke-width="1" points="2119,-86 1888,-101 1969,-74" style="fill:#794cff;stroke:#794cff;"></polygon><polygon stroke-linejoin="round" stroke-miterlimit="1" stroke-width="1" points="2201,499 1800,685 1980,794" style="fill:#574b5c;stroke:#574b5c;"></polygon><polygon stroke-linejoin="round" stroke-miterlimit="1" stroke-width="1" points="2201,499 1968,264 1800,685" style="fill:#594b6a;stroke:#594b6a;"></polygon><polygon stroke-linejoin="round" stroke-miterlimit="1" stroke-width="1" points="2201,158 2145,12 1976,170" style="fill:#594b6a;stroke:#594b6a;"></polygon><polygon stroke-linejoin="round" stroke-miterlimit="1" stroke-width="1" points="2201,158 1976,170 1968,264" style="fill:#5a4b71;stroke:#5a4b71;"></polygon><polygon stroke-linejoin="round" stroke-miterlimit="1" stroke-width="1" points="2201,49 2145,12 2201,158" style="fill:#804cff;stroke:#804cff;"></polygon><polygon stroke-linejoin="round" stroke-miterlimit="1" stroke-width="1" points="2201,349 2201,158 1968,264" style="fill:#574b62;stroke:#574b62;"></polygon><polygon stroke-linejoin="round" stroke-miterlimit="1" stroke-width="1" points="2201,947 2144,1041 2201,976" style="fill:#574b5c;stroke:#574b5c;"></polygon><polygon stroke-linejoin="round" stroke-miterlimit="1" stroke-width="1" points="2201,947 1980,794 2144,1041" style="fill:#5b4b70;stroke:#5b4b70;"></polygon><polygon stroke-linejoin="round" stroke-miterlimit="1" stroke-width="1" points="2201,947 2201,499 1980,794" style="fill:#644b95;stroke:#644b95;"></polygon><polygon stroke-linejoin="round" stroke-miterlimit="1" stroke-width="1" points="2201,386 2201,349 1968,264" style="fill:#574b5c;stroke:#574b5c;"></polygon><polygon stroke-linejoin="round" stroke-miterlimit="1" stroke-width="1" points="2201,1099 2144,1041 1836,1044" style="fill:#5e4b82;stroke:#5e4b82;"></polygon><polygon stroke-linejoin="round" stroke-miterlimit="1" stroke-width="1" points="2201,1099 1836,1044 1481,1099" style="fill:#5a4b67;stroke:#5a4b67;"></polygon><polygon stroke-linejoin="round" stroke-miterlimit="1" stroke-width="1" points="2201,1099 2201,976 2144,1041" style="fill:#7d4cf5;stroke:#7d4cf5;"></polygon><polygon stroke-linejoin="round" stroke-miterlimit="1" stroke-width="1" points="2201,499 2201,386 1968,264" style="fill:#574b5c;stroke:#574b5c;"></polygon><polygon stroke-linejoin="round" stroke-miterlimit="1" stroke-width="1" points="2201,499 1968,264 2201,499" style="fill:#b04eff;stroke:#b04eff;"></polygon><polygon stroke-linejoin="round" stroke-miterlimit="1" stroke-width="1" points="2201,-101 1888,-101 2119,-86" style="fill:#594b61;stroke:#594b61;"></polygon><polygon stroke-linejoin="round" stroke-miterlimit="1" stroke-width="1" points="2201,-101 2145,12 2201,49" style="fill:#574b5e;stroke:#574b5e;"></polygon><polygon stroke-linejoin="round" stroke-miterlimit="1" stroke-width="1" points="2201,-101 2119,-86 2145,12" style="fill:#5e4b7a;stroke:#5e4b7a;"></polygon><polygon stroke-linejoin="round" stroke-miterlimit="1" stroke-width="1" points="2119,-86 1969,-74 2052,-55" style="fill:#5e4b8b;stroke:#5e4b8b;"></polygon><polygon stroke-linejoin="round" stroke-miterlimit="1" stroke-width="1" points="2144,1041 1897,942 1836,1044" style="fill:#684ba3;stroke:#684ba3;"></polygon><polygon stroke-linejoin="round" stroke-miterlimit="1" stroke-width="1" points="2144,1041 1980,794 1897,942" style="fill:#574b61;stroke:#574b61;"></polygon><polygon stroke-linejoin="round" stroke-miterlimit="1" stroke-width="1" points="2145,12 2119,-86 2052,-55" style="fill:#584b61;stroke:#584b61;"></polygon><polygon stroke-linejoin="round" stroke-miterlimit="1" stroke-width="1" points="2145,12 2052,-55 1976,170" style="fill:#644b94;stroke:#644b94;"></polygon><polygon stroke-linejoin="round" stroke-miterlimit="1" stroke-width="1" points="1968,264 1699,357 1800,685" style="fill:#624b93;stroke:#624b93;"></polygon><polygon stroke-linejoin="round" stroke-miterlimit="1" stroke-width="1" points="1976,170 1969,-74 1846,58" style="fill:#584b65;stroke:#584b65;"></polygon><polygon stroke-linejoin="round" stroke-miterlimit="1" stroke-width="1" points="2052,-55 1969,-74 1976,170" style="fill:#8f4dff;stroke:#8f4dff;"></polygon><polygon stroke-linejoin="round" stroke-miterlimit="1" stroke-width="1" points="1969,-74 1888,-101 1846,58" style="fill:#5f4b7f;stroke:#5f4b7f;"></polygon><polygon stroke-linejoin="round" stroke-miterlimit="1" stroke-width="1" points="1976,170 1836,81 1848,155" style="fill:#684bad;stroke:#684bad;"></polygon><polygon stroke-linejoin="round" stroke-miterlimit="1" stroke-width="1" points="1976,170 1846,58 1836,81" style="fill:#7a4cf4;stroke:#7a4cf4;"></polygon><polygon stroke-linejoin="round" stroke-miterlimit="1" stroke-width="1" points="1976,170 1848,155 1968,264" style="fill:#5c4b74;stroke:#5c4b74;"></polygon><polygon stroke-linejoin="round" stroke-miterlimit="1" stroke-width="1" points="1980,794 1769,711 1897,942" style="fill:#654b96;stroke:#654b96;"></polygon><polygon stroke-linejoin="round" stroke-miterlimit="1" stroke-width="1" points="1980,794 1800,685 1769,711" style="fill:#5b4b84;stroke:#5b4b84;"></polygon><polygon stroke-linejoin="round" stroke-miterlimit="1" stroke-width="1" points="1968,264 1848,155 1699,357" style="fill:#574b5f;stroke:#574b5f;"></polygon><polygon stroke-linejoin="round" stroke-miterlimit="1" stroke-width="1" points="1481,1099 1261,1056 1001,1099" style="fill:#794cee;stroke:#794cee;"></polygon><polygon stroke-linejoin="round" stroke-miterlimit="1" stroke-width="1" points="1846,58 1834,-101 1792,-101" style="fill:#584b5e;stroke:#584b5e;"></polygon><polygon stroke-linejoin="round" stroke-miterlimit="1" stroke-width="1" points="1888,-101 1834,-101 1846,58" style="fill:#834cff;stroke:#834cff;"></polygon><polygon stroke-linejoin="round" stroke-miterlimit="1" stroke-width="1" points="1897,942 1769,711 1776,987" style="fill:#5d4b72;stroke:#5d4b72;"></polygon><polygon stroke-linejoin="round" stroke-miterlimit="1" stroke-width="1" points="1897,942 1776,987 1836,1044" style="fill:#574b5c;stroke:#574b5c;"></polygon><polygon stroke-linejoin="round" stroke-miterlimit="1" stroke-width="1" points="1848,155 1749,130 1699,357" style="fill:#574b5f;stroke:#574b5f;"></polygon><polygon stroke-linejoin="round" stroke-miterlimit="1" stroke-width="1" points="1749,130 1627,297 1699,357" style="fill:#674ba9;stroke:#674ba9;"></polygon><polygon stroke-linejoin="round" stroke-miterlimit="1" stroke-width="1" points="1776,987 1769,711 1576,969" style="fill:#5c4b7b;stroke:#5c4b7b;"></polygon><polygon stroke-linejoin="round" stroke-miterlimit="1" stroke-width="1" points="1800,685 1524,438 1769,711" style="fill:#584b6f;stroke:#584b6f;"></polygon><polygon stroke-linejoin="round" stroke-miterlimit="1" stroke-width="1" points="1800,685 1699,357 1524,438" style="fill:#584b66;stroke:#584b66;"></polygon><polygon stroke-linejoin="round" stroke-miterlimit="1" stroke-width="1" points="1836,1044 1776,987 1481,1099" style="fill:#634b93;stroke:#634b93;"></polygon><polygon stroke-linejoin="round" stroke-miterlimit="1" stroke-width="1" points="1846,58 1689,-54 1793,107" style="fill:#7d4cff;stroke:#7d4cff;"></polygon><polygon stroke-linejoin="round" stroke-miterlimit="1" stroke-width="1" points="1846,58 1792,-101 1689,-54" style="fill:#584b65;stroke:#584b65;"></polygon><polygon stroke-linejoin="round" stroke-miterlimit="1" stroke-width="1" points="1848,155 1793,107 1749,130" style="fill:#994dff;stroke:#994dff;"></polygon><polygon stroke-linejoin="round" stroke-miterlimit="1" stroke-width="1" points="1848,155 1836,81 1793,107" style="fill:#9f4dff;stroke:#9f4dff;"></polygon><polygon stroke-linejoin="round" stroke-miterlimit="1" stroke-width="1" points="1846,58 1793,107 1836,81" style="fill:#574b5c;stroke:#574b5c;"></polygon><polygon stroke-linejoin="round" stroke-miterlimit="1" stroke-width="1" points="1776,987 1576,969 1481,1099" style="fill:#574b5c;stroke:#574b5c;"></polygon><polygon stroke-linejoin="round" stroke-miterlimit="1" stroke-width="1" points="1769,711 1490,824 1576,969" style="fill:#614b8a;stroke:#614b8a;"></polygon><polygon stroke-linejoin="round" stroke-miterlimit="1" stroke-width="1" points="1793,107 1689,-54 1749,130" style="fill:#594b6b;stroke:#594b6b;"></polygon><polygon stroke-linejoin="round" stroke-miterlimit="1" stroke-width="1" points="1689,-54 1001,-101 1092,8" style="fill:#644bae;stroke:#644bae;"></polygon><polygon stroke-linejoin="round" stroke-miterlimit="1" stroke-width="1" points="1769,711 1524,438 1431,730" style="fill:#624b92;stroke:#624b92;"></polygon><polygon stroke-linejoin="round" stroke-miterlimit="1" stroke-width="1" points="1769,711 1431,730 1490,824" style="fill:#574b5c;stroke:#574b5c;"></polygon><polygon stroke-linejoin="round" stroke-miterlimit="1" stroke-width="1" points="1689,-54 1092,8 1303,110" style="fill:#5f4b92;stroke:#5f4b92;"></polygon><polygon stroke-linejoin="round" stroke-miterlimit="1" stroke-width="1" points="1749,130 1689,-54 1478,166" style="fill:#694ba9;stroke:#694ba9;"></polygon><polygon stroke-linejoin="round" stroke-miterlimit="1" stroke-width="1" points="1749,130 1478,166 1627,297" style="fill:#634b98;stroke:#634b98;"></polygon><polygon stroke-linejoin="round" stroke-miterlimit="1" stroke-width="1" points="1524,438 1420,721 1431,730" style="fill:#574b5c;stroke:#574b5c;"></polygon><polygon stroke-linejoin="round" stroke-miterlimit="1" stroke-width="1" points="1699,357 1627,297 1553,362" style="fill:#764ce1;stroke:#764ce1;"></polygon><polygon stroke-linejoin="round" stroke-miterlimit="1" stroke-width="1" points="1699,357 1553,362 1524,438" style="fill:#574b5c;stroke:#574b5c;"></polygon><polygon stroke-linejoin="round" stroke-miterlimit="1" stroke-width="1" points="1627,297 1478,166 1475,205" style="fill:#574b5c;stroke:#574b5c;"></polygon><polygon stroke-linejoin="round" stroke-miterlimit="1" stroke-width="1" points="1689,-54 1303,110 1478,166" style="fill:#604b92;stroke:#604b92;"></polygon><polygon stroke-linejoin="round" stroke-miterlimit="1" stroke-width="1" points="1524,438 1360,577 1420,721" style="fill:#6e4cc9;stroke:#6e4cc9;"></polygon><polygon stroke-linejoin="round" stroke-miterlimit="1" stroke-width="1" points="1627,297 1475,205 1553,362" style="fill:#624b95;stroke:#624b95;"></polygon><polygon stroke-linejoin="round" stroke-miterlimit="1" stroke-width="1" points="1576,969 1409,1038 1481,1099" style="fill:#574b5c;stroke:#574b5c;"></polygon><polygon stroke-linejoin="round" stroke-miterlimit="1" stroke-width="1" points="1576,969 1399,1001 1409,1038" style="fill:#784cf7;stroke:#784cf7;"></polygon><polygon stroke-linejoin="round" stroke-miterlimit="1" stroke-width="1" points="1576,969 1490,824 1396,899" style="fill:#594b79;stroke:#594b79;"></polygon><polygon stroke-linejoin="round" stroke-miterlimit="1" stroke-width="1" points="1576,969 1396,899 1399,1001" style="fill:#584b5d;stroke:#584b5d;"></polygon><polygon stroke-linejoin="round" stroke-miterlimit="1" stroke-width="1" points="1553,362 1374,341 1524,438" style="fill:#6a4bb2;stroke:#6a4bb2;"></polygon><polygon stroke-linejoin="round" stroke-miterlimit="1" stroke-width="1" points="1553,362 1475,205 1374,341" style="fill:#664baa;stroke:#664baa;"></polygon><polygon stroke-linejoin="round" stroke-miterlimit="1" stroke-width="1" points="1524,438 1374,341 1334,479" style="fill:#6d4cc8;stroke:#6d4cc8;"></polygon><polygon stroke-linejoin="round" stroke-miterlimit="1" stroke-width="1" points="1524,438 1334,479 1360,577" style="fill:#574b5c;stroke:#574b5c;"></polygon><polygon stroke-linejoin="round" stroke-miterlimit="1" stroke-width="1" points="1261,1056 1225,1048 1001,1099" style="fill:#694baf;stroke:#694baf;"></polygon><polygon stroke-linejoin="round" stroke-miterlimit="1" stroke-width="1" points="1481,1099 1409,1038 1261,1056" style="fill:#574b5c;stroke:#574b5c;"></polygon><polygon stroke-linejoin="round" stroke-miterlimit="1" stroke-width="1" points="1490,824 1431,730 1396,899" style="fill:#694ba3;stroke:#694ba3;"></polygon><polygon stroke-linejoin="round" stroke-miterlimit="1" stroke-width="1" points="1478,166 1303,110 1475,205" style="fill:#664baf;stroke:#664baf;"></polygon><polygon stroke-linejoin="round" stroke-miterlimit="1" stroke-width="1" points="1475,205 1303,110 1374,341" style="fill:#5d4b99;stroke:#5d4b99;"></polygon><polygon stroke-linejoin="round" stroke-miterlimit="1" stroke-width="1" points="1420,721 1360,577 1309,682" style="fill:#584b62;stroke:#584b62;"></polygon><polygon stroke-linejoin="round" stroke-miterlimit="1" stroke-width="1" points="1420,721 1309,682 1268,828" style="fill:#664b9b;stroke:#664b9b;"></polygon><polygon stroke-linejoin="round" stroke-miterlimit="1" stroke-width="1" points="1431,730 1420,721 1268,828" style="fill:#574b5c;stroke:#574b5c;"></polygon><polygon stroke-linejoin="round" stroke-miterlimit="1" stroke-width="1" points="1431,730 1268,828 1396,899" style="fill:#6f4cc3;stroke:#6f4cc3;"></polygon><polygon stroke-linejoin="round" stroke-miterlimit="1" stroke-width="1" points="1399,1001 1396,899 1261,1056" style="fill:#8a4cff;stroke:#8a4cff;"></polygon><polygon stroke-linejoin="round" stroke-miterlimit="1" stroke-width="1" points="1409,1038 1399,1001 1261,1056" style="fill:#574b5c;stroke:#574b5c;"></polygon><polygon stroke-linejoin="round" stroke-miterlimit="1" stroke-width="1" points="1374,341 1303,110 1228,412" style="fill:#5f4bb3;stroke:#5f4bb3;"></polygon><polygon stroke-linejoin="round" stroke-miterlimit="1" stroke-width="1" points="1396,899 1268,828 1215,1030" style="fill:#584b64;stroke:#584b64;"></polygon><polygon stroke-linejoin="round" stroke-miterlimit="1" stroke-width="1" points="1396,899 1215,1030 1261,1056" style="fill:#784ce8;stroke:#784ce8;"></polygon><polygon stroke-linejoin="round" stroke-miterlimit="1" stroke-width="1" points="1303,110 1079,216 1228,412" style="fill:#724cff;stroke:#724cff;"></polygon><polygon stroke-linejoin="round" stroke-miterlimit="1" stroke-width="1" points="1374,341 1228,412 1334,479" style="fill:#7d4cff;stroke:#7d4cff;"></polygon><polygon stroke-linejoin="round" stroke-miterlimit="1" stroke-width="1" points="1309,682 1221,759 1268,828" style="fill:#7f4cf7;stroke:#7f4cf7;"></polygon><polygon stroke-linejoin="round" stroke-miterlimit="1" stroke-width="1" points="1360,577 1334,479 1139,615" style="fill:#584b6f;stroke:#584b6f;"></polygon><polygon stroke-linejoin="round" stroke-miterlimit="1" stroke-width="1" points="1360,577 1139,615 1309,682" style="fill:#664b9a;stroke:#664b9a;"></polygon><polygon stroke-linejoin="round" stroke-miterlimit="1" stroke-width="1" points="1268,828 1219,825 1215,1030" style="fill:#584b66;stroke:#584b66;"></polygon><polygon stroke-linejoin="round" stroke-miterlimit="1" stroke-width="1" points="1334,479 1228,412 1139,615" style="fill:#684bbc;stroke:#684bbc;"></polygon><polygon stroke-linejoin="round" stroke-miterlimit="1" stroke-width="1" points="1309,682 1139,615 1221,759" style="fill:#574b5c;stroke:#574b5c;"></polygon><polygon stroke-linejoin="round" stroke-miterlimit="1" stroke-width="1" points="1303,110 1092,8 1079,216" style="fill:#614bc5;stroke:#614bc5;"></polygon><polygon stroke-linejoin="round" stroke-miterlimit="1" stroke-width="1" points="1219,825 1086,912 1215,1030" style="fill:#6a4ba2;stroke:#6a4ba2;"></polygon><polygon stroke-linejoin="round" stroke-miterlimit="1" stroke-width="1" points="1228,412 1079,216 1070,393" style="fill:#634ba7;stroke:#634ba7;"></polygon><polygon stroke-linejoin="round" stroke-miterlimit="1" stroke-width="1" points="1261,1056 1215,1030 1225,1048" style="fill:#9d4dff;stroke:#9d4dff;"></polygon><polygon stroke-linejoin="round" stroke-miterlimit="1" stroke-width="1" points="1268,828 1221,759 1219,825" style="fill:#774ce3;stroke:#774ce3;"></polygon><polygon stroke-linejoin="round" stroke-miterlimit="1" stroke-width="1" points="1225,1048 1215,1030 1001,1099" style="fill:#574b5c;stroke:#574b5c;"></polygon><polygon stroke-linejoin="round" stroke-miterlimit="1" stroke-width="1" points="1228,412 1070,393 1139,615" style="fill:#5b4b8c;stroke:#5b4b8c;"></polygon><polygon stroke-linejoin="round" stroke-miterlimit="1" stroke-width="1" points="1221,759 1009,827 1219,825" style="fill:#704cc4;stroke:#704cc4;"></polygon><polygon stroke-linejoin="round" stroke-miterlimit="1" stroke-width="1" points="1221,759 1139,615 1009,827" style="fill:#5f4b7a;stroke:#5f4b7a;"></polygon><polygon stroke-linejoin="round" stroke-miterlimit="1" stroke-width="1" points="1219,825 1009,827 1086,912" style="fill:#5d4b8c;stroke:#5d4b8c;"></polygon><polygon stroke-linejoin="round" stroke-miterlimit="1" stroke-width="1" points="1215,1030 1086,912 1001,1099" style="fill:#574b5c;stroke:#574b5c;"></polygon><polygon stroke-linejoin="round" stroke-miterlimit="1" stroke-width="1" points="1086,912 979,977 1001,1099" style="fill:#704baa;stroke:#704baa;"></polygon><polygon stroke-linejoin="round" stroke-miterlimit="1" stroke-width="1" points="1092,8 1006,149 1079,216" style="fill:#5e4b94;stroke:#5e4b94;"></polygon><polygon stroke-linejoin="round" stroke-miterlimit="1" stroke-width="1" points="1139,615 764,791 1009,827" style="fill:#5a4b77;stroke:#5a4b77;"></polygon><polygon stroke-linejoin="round" stroke-miterlimit="1" stroke-width="1" points="1139,615 859,360 764,791" style="fill:#604b7e;stroke:#604b7e;"></polygon><polygon stroke-linejoin="round" stroke-miterlimit="1" stroke-width="1" points="1139,615 1070,393 859,360" style="fill:#594b7a;stroke:#594b7a;"></polygon><polygon stroke-linejoin="round" stroke-miterlimit="1" stroke-width="1" points="859,360 687,705 764,791" style="fill:#5e4b91;stroke:#5e4b91;"></polygon><polygon stroke-linejoin="round" stroke-miterlimit="1" stroke-width="1" points="1009,827 764,791 810,829" style="fill:#574b5c;stroke:#574b5c;"></polygon><polygon stroke-linejoin="round" stroke-miterlimit="1" stroke-width="1" points="1079,216 855,333 1070,393" style="fill:#5f4b92;stroke:#5f4b92;"></polygon><polygon stroke-linejoin="round" stroke-miterlimit="1" stroke-width="1" points="1092,8 982,-17 1006,149" style="fill:#5e4ba6;stroke:#5e4ba6;"></polygon><polygon stroke-linejoin="round" stroke-miterlimit="1" stroke-width="1" points="1092,8 1001,-101 982,-17" style="fill:#624b92;stroke:#624b92;"></polygon><polygon stroke-linejoin="round" stroke-miterlimit="1" stroke-width="1" points="1070,393 855,333 859,360" style="fill:#5f4b78;stroke:#5f4b78;"></polygon><polygon stroke-linejoin="round" stroke-miterlimit="1" stroke-width="1" points="1079,216 1006,149 855,333" style="fill:#634ba2;stroke:#634ba2;"></polygon><polygon stroke-linejoin="round" stroke-miterlimit="1" stroke-width="1" points="1086,912 1009,827 979,977" style="fill:#5b4b85;stroke:#5b4b85;"></polygon><polygon stroke-linejoin="round" stroke-miterlimit="1" stroke-width="1" points="824,-10 630,-101 725,-26" style="fill:#664ba8;stroke:#664ba8;"></polygon><polygon stroke-linejoin="round" stroke-miterlimit="1" stroke-width="1" points="1001,1099 979,977 859,1099" style="fill:#5a4b74;stroke:#5a4b74;"></polygon><polygon stroke-linejoin="round" stroke-miterlimit="1" stroke-width="1" points="1001,-101 824,-10 897,-7" style="fill:#6a4ced;stroke:#6a4ced;"></polygon><polygon stroke-linejoin="round" stroke-miterlimit="1" stroke-width="1" points="1001,-101 630,-101 824,-10" style="fill:#714cc9;stroke:#714cc9;"></polygon><polygon stroke-linejoin="round" stroke-miterlimit="1" stroke-width="1" points="1006,149 982,-17 897,-7" style="fill:#714b98;stroke:#714b98;"></polygon><polygon stroke-linejoin="round" stroke-miterlimit="1" stroke-width="1" points="1009,827 810,829 979,977" style="fill:#614b8d;stroke:#614b8d;"></polygon><polygon stroke-linejoin="round" stroke-miterlimit="1" stroke-width="1" points="1001,-101 897,-7 982,-17" style="fill:#684be9;stroke:#684be9;"></polygon><polygon stroke-linejoin="round" stroke-miterlimit="1" stroke-width="1" points="1006,149 687,127 855,333" style="fill:#624b86;stroke:#624b86;"></polygon><polygon stroke-linejoin="round" stroke-miterlimit="1" stroke-width="1" points="1006,149 897,-7 824,-10" style="fill:#5a4b83;stroke:#5a4b83;"></polygon><polygon stroke-linejoin="round" stroke-miterlimit="1" stroke-width="1" points="1006,149 824,-10 687,127" style="fill:#684baa;stroke:#684baa;"></polygon><polygon stroke-linejoin="round" stroke-miterlimit="1" stroke-width="1" points="855,333 687,127 696,250" style="fill:#5f4b9b;stroke:#5f4b9b;"></polygon><polygon stroke-linejoin="round" stroke-miterlimit="1" stroke-width="1" points="979,977 717,926 859,1099" style="fill:#574b5c;stroke:#574b5c;"></polygon><polygon stroke-linejoin="round" stroke-miterlimit="1" stroke-width="1" points="979,977 810,829 717,926" style="fill:#5b4b6c;stroke:#5b4b6c;"></polygon><polygon stroke-linejoin="round" stroke-miterlimit="1" stroke-width="1" points="501,1096 458,1088 267,1099" style="fill:#b84eff;stroke:#b84eff;"></polygon><polygon stroke-linejoin="round" stroke-miterlimit="1" stroke-width="1" points="859,1099 717,926 782,1099" style="fill:#594b72;stroke:#594b72;"></polygon><polygon stroke-linejoin="round" stroke-miterlimit="1" stroke-width="1" points="696,250 536,678 687,705" style="fill:#5d4b8d;stroke:#5d4b8d;"></polygon><polygon stroke-linejoin="round" stroke-miterlimit="1" stroke-width="1" points="782,1099 717,926 690,1047" style="fill:#614b95;stroke:#614b95;"></polygon><polygon stroke-linejoin="round" stroke-miterlimit="1" stroke-width="1" points="859,360 696,250 687,705" style="fill:#5a4b7c;stroke:#5a4b7c;"></polygon><polygon stroke-linejoin="round" stroke-miterlimit="1" stroke-width="1" points="859,360 855,333 696,250" style="fill:#624ba3;stroke:#624ba3;"></polygon><polygon stroke-linejoin="round" stroke-miterlimit="1" stroke-width="1" points="824,-10 725,-26 687,127" style="fill:#654bc7;stroke:#654bc7;"></polygon><polygon stroke-linejoin="round" stroke-miterlimit="1" stroke-width="1" points="696,250 604,240 536,678" style="fill:#684bd5;stroke:#684bd5;"></polygon><polygon stroke-linejoin="round" stroke-miterlimit="1" stroke-width="1" points="717,926 677,1007 690,1047" style="fill:#5d4b95;stroke:#5d4b95;"></polygon><polygon stroke-linejoin="round" stroke-miterlimit="1" stroke-width="1" points="782,1099 690,1047 501,1096" style="fill:#644ba5;stroke:#644ba5;"></polygon><polygon stroke-linejoin="round" stroke-miterlimit="1" stroke-width="1" points="810,829 764,791 717,926" style="fill:#874cd1;stroke:#874cd1;"></polygon><polygon stroke-linejoin="round" stroke-miterlimit="1" stroke-width="1" points="764,791 687,705 717,926" style="fill:#624b71;stroke:#624b71;"></polygon><polygon stroke-linejoin="round" stroke-miterlimit="1" stroke-width="1" points="239,1098 88,1077 -96,1099" style="fill:#574b5c;stroke:#574b5c;"></polygon><polygon stroke-linejoin="round" stroke-miterlimit="1" stroke-width="1" points="546,229 481,678 536,678" style="fill:#694bda;stroke:#694bda;"></polygon><polygon stroke-linejoin="round" stroke-miterlimit="1" stroke-width="1" points="604,240 546,229 536,678" style="fill:#6e4b8a;stroke:#6e4b8a;"></polygon><polygon stroke-linejoin="round" stroke-miterlimit="1" stroke-width="1" points="630,-101 198,-101 274,-55" style="fill:#794ce5;stroke:#794ce5;"></polygon><polygon stroke-linejoin="round" stroke-miterlimit="1" stroke-width="1" points="687,127 630,-101 520,144" style="fill:#634b7f;stroke:#634b7f;"></polygon><polygon stroke-linejoin="round" stroke-miterlimit="1" stroke-width="1" points="696,250 687,127 604,240" style="fill:#6d4b8c;stroke:#6d4b8c;"></polygon><polygon stroke-linejoin="round" stroke-miterlimit="1" stroke-width="1" points="717,926 536,678 403,943" style="fill:#584b68;stroke:#584b68;"></polygon><polygon stroke-linejoin="round" stroke-miterlimit="1" stroke-width="1" points="717,926 687,705 536,678" style="fill:#5a4b76;stroke:#5a4b76;"></polygon><polygon stroke-linejoin="round" stroke-miterlimit="1" stroke-width="1" points="725,-26 630,-101 687,127" style="fill:#614b7c;stroke:#614b7c;"></polygon><polygon stroke-linejoin="round" stroke-miterlimit="1" stroke-width="1" points="546,229 273,504 481,678" style="fill:#614b86;stroke:#614b86;"></polygon><polygon stroke-linejoin="round" stroke-miterlimit="1" stroke-width="1" points="717,926 403,943 677,1007" style="fill:#574b5c;stroke:#574b5c;"></polygon><polygon stroke-linejoin="round" stroke-miterlimit="1" stroke-width="1" points="687,127 520,144 544,162" style="fill:#6e4be0;stroke:#6e4be0;"></polygon><polygon stroke-linejoin="round" stroke-miterlimit="1" stroke-width="1" points="687,127 544,162 604,240" style="fill:#634b8d;stroke:#634b8d;"></polygon><polygon stroke-linejoin="round" stroke-miterlimit="1" stroke-width="1" points="690,1047 677,1007 501,1096" style="fill:#574b5c;stroke:#574b5c;"></polygon><polygon stroke-linejoin="round" stroke-miterlimit="1" stroke-width="1" points="677,1007 403,943 501,1096" style="fill:#6e4bba;stroke:#6e4bba;"></polygon><polygon stroke-linejoin="round" stroke-miterlimit="1" stroke-width="1" points="481,678 273,504 339,635" style="fill:#574b5c;stroke:#574b5c;"></polygon><polygon stroke-linejoin="round" stroke-miterlimit="1" stroke-width="1" points="536,678 481,678 403,943" style="fill:#6b4b8e;stroke:#6b4b8e;"></polygon><polygon stroke-linejoin="round" stroke-miterlimit="1" stroke-width="1" points="546,229 243,356 273,504" style="fill:#664b88;stroke:#664b88;"></polygon><polygon stroke-linejoin="round" stroke-miterlimit="1" stroke-width="1" points="604,240 544,162 546,229" style="fill:#604b93;stroke:#604b93;"></polygon><polygon stroke-linejoin="round" stroke-miterlimit="1" stroke-width="1" points="630,-101 274,-55 520,144" style="fill:#644b86;stroke:#644b86;"></polygon><polygon stroke-linejoin="round" stroke-miterlimit="1" stroke-width="1" points="481,678 336,775 403,943" style="fill:#5b4b64;stroke:#5b4b64;"></polygon><polygon stroke-linejoin="round" stroke-miterlimit="1" stroke-width="1" points="501,1096 403,943 458,1088" style="fill:#654ba6;stroke:#654ba6;"></polygon><polygon stroke-linejoin="round" stroke-miterlimit="1" stroke-width="1" points="520,144 274,-55 309,147" style="fill:#664ba4;stroke:#664ba4;"></polygon><polygon stroke-linejoin="round" stroke-miterlimit="1" stroke-width="1" points="544,162 520,144 529,165" style="fill:#6f4ba3;stroke:#6f4ba3;"></polygon><polygon stroke-linejoin="round" stroke-miterlimit="1" stroke-width="1" points="546,229 529,165 309,147" style="fill:#664b9f;stroke:#664b9f;"></polygon><polygon stroke-linejoin="round" stroke-miterlimit="1" stroke-width="1" points="546,229 309,147 243,356" style="fill:#654b81;stroke:#654b81;"></polygon><polygon stroke-linejoin="round" stroke-miterlimit="1" stroke-width="1" points="546,229 544,162 529,165" style="fill:#604b81;stroke:#604b81;"></polygon><polygon stroke-linejoin="round" stroke-miterlimit="1" stroke-width="1" points="458,1088 403,943 375,1031" style="fill:#654b80;stroke:#654b80;"></polygon><polygon stroke-linejoin="round" stroke-miterlimit="1" stroke-width="1" points="529,165 520,144 309,147" style="fill:#664bab;stroke:#664bab;"></polygon><polygon stroke-linejoin="round" stroke-miterlimit="1" stroke-width="1" points="481,678 339,635 336,775" style="fill:#654b78;stroke:#654b78;"></polygon><polygon stroke-linejoin="round" stroke-miterlimit="1" stroke-width="1" points="458,1088 375,1031 267,1099" style="fill:#604b6f;stroke:#604b6f;"></polygon><polygon stroke-linejoin="round" stroke-miterlimit="1" stroke-width="1" points="309,147 274,-55 280,136" style="fill:#6e4cd1;stroke:#6e4cd1;"></polygon><polygon stroke-linejoin="round" stroke-miterlimit="1" stroke-width="1" points="375,1031 295,1047 267,1099" style="fill:#574b5c;stroke:#574b5c;"></polygon><polygon stroke-linejoin="round" stroke-miterlimit="1" stroke-width="1" points="403,943 336,775 210,888" style="fill:#624b8b;stroke:#624b8b;"></polygon><polygon stroke-linejoin="round" stroke-miterlimit="1" stroke-width="1" points="403,943 295,1047 375,1031" style="fill:#574b5c;stroke:#574b5c;"></polygon><polygon stroke-linejoin="round" stroke-miterlimit="1" stroke-width="1" points="403,943 210,888 295,1047" style="fill:#624b81;stroke:#624b81;"></polygon><polygon stroke-linejoin="round" stroke-miterlimit="1" stroke-width="1" points="295,1047 210,888 202,1002" style="fill:#6d4bc4;stroke:#6d4bc4;"></polygon><polygon stroke-linejoin="round" stroke-miterlimit="1" stroke-width="1" points="309,147 280,136 243,356" style="fill:#714cff;stroke:#714cff;"></polygon><polygon stroke-linejoin="round" stroke-miterlimit="1" stroke-width="1" points="336,775 172,819 210,888" style="fill:#6b4bba;stroke:#6b4bba;"></polygon><polygon stroke-linejoin="round" stroke-miterlimit="1" stroke-width="1" points="339,635 26,703 172,819" style="fill:#5a4b62;stroke:#5a4b62;"></polygon><polygon stroke-linejoin="round" stroke-miterlimit="1" stroke-width="1" points="339,635 273,504 21,588" style="fill:#694ba1;stroke:#694ba1;"></polygon><polygon stroke-linejoin="round" stroke-miterlimit="1" stroke-width="1" points="339,635 21,588 26,703" style="fill:#574b60;stroke:#574b60;"></polygon><polygon stroke-linejoin="round" stroke-miterlimit="1" stroke-width="1" points="339,635 172,819 336,775" style="fill:#694b8a;stroke:#694b8a;"></polygon><polygon stroke-linejoin="round" stroke-miterlimit="1" stroke-width="1" points="280,136 96,310 243,356" style="fill:#6b4b95;stroke:#6b4b95;"></polygon><polygon stroke-linejoin="round" stroke-miterlimit="1" stroke-width="1" points="280,136 75,198 96,310" style="fill:#744ca1;stroke:#744ca1;"></polygon><polygon stroke-linejoin="round" stroke-miterlimit="1" stroke-width="1" points="280,136 274,-55 154,-48" style="fill:#734ce4;stroke:#734ce4;"></polygon><polygon stroke-linejoin="round" stroke-miterlimit="1" stroke-width="1" points="295,1047 239,1098 267,1099" style="fill:#8a4cdd;stroke:#8a4cdd;"></polygon><polygon stroke-linejoin="round" stroke-miterlimit="1" stroke-width="1" points="295,1047 202,1002 239,1098" style="fill:#6c4bb0;stroke:#6c4bb0;"></polygon><polygon stroke-linejoin="round" stroke-miterlimit="1" stroke-width="1" points="210,888 180,904 202,1002" style="fill:#684bc5;stroke:#684bc5;"></polygon><polygon stroke-linejoin="round" stroke-miterlimit="1" stroke-width="1" points="273,504 243,356 93,417" style="fill:#714caf;stroke:#714caf;"></polygon><polygon stroke-linejoin="round" stroke-miterlimit="1" stroke-width="1" points="280,136 154,-48 75,198" style="fill:#714b94;stroke:#714b94;"></polygon><polygon stroke-linejoin="round" stroke-miterlimit="1" stroke-width="1" points="273,504 93,417 21,588" style="fill:#6a4b88;stroke:#6a4b88;"></polygon><polygon stroke-linejoin="round" stroke-miterlimit="1" stroke-width="1" points="274,-55 193,-97 154,-48" style="fill:#714cb4;stroke:#714cb4;"></polygon><polygon stroke-linejoin="round" stroke-miterlimit="1" stroke-width="1" points="274,-55 198,-101 193,-97" style="fill:#a04dfe;stroke:#a04dfe;"></polygon><polygon stroke-linejoin="round" stroke-miterlimit="1" stroke-width="1" points="239,1098 202,1002 88,1077" style="fill:#6f4bab;stroke:#6f4bab;"></polygon><polygon stroke-linejoin="round" stroke-miterlimit="1" stroke-width="1" points="243,356 96,310 93,417" style="fill:#624b6f;stroke:#624b6f;"></polygon><polygon stroke-linejoin="round" stroke-miterlimit="1" stroke-width="1" points="88,1077 34,1066 -96,1099" style="fill:#984dff;stroke:#984dff;"></polygon><polygon stroke-linejoin="round" stroke-miterlimit="1" stroke-width="1" points="154,-48 -27,101 75,198" style="fill:#724b94;stroke:#724b94;"></polygon><polygon stroke-linejoin="round" stroke-miterlimit="1" stroke-width="1" points="198,-101 -51,-101 193,-97" style="fill:#b64eff;stroke:#b64eff;"></polygon><polygon stroke-linejoin="round" stroke-miterlimit="1" stroke-width="1" points="210,888 172,819 180,904" style="fill:#614ba5;stroke:#614ba5;"></polygon><polygon stroke-linejoin="round" stroke-miterlimit="1" stroke-width="1" points="193,-97 -51,-101 154,-48" style="fill:#814cd1;stroke:#814cd1;"></polygon><polygon stroke-linejoin="round" stroke-miterlimit="1" stroke-width="1" points="202,1002 180,904 88,1077" style="fill:#604b78;stroke:#604b78;"></polygon><polygon stroke-linejoin="round" stroke-miterlimit="1" stroke-width="1" points="180,904 34,1066 88,1077" style="fill:#5d4b8d;stroke:#5d4b8d;"></polygon><polygon stroke-linejoin="round" stroke-miterlimit="1" stroke-width="1" points="180,904 172,819 26,703" style="fill:#884cff;stroke:#884cff;"></polygon><polygon stroke-linejoin="round" stroke-miterlimit="1" stroke-width="1" points="180,904 26,703 34,1066" style="fill:#604b6d;stroke:#604b6d;"></polygon><polygon stroke-linejoin="round" stroke-miterlimit="1" stroke-width="1" points="34,1066 26,703 -74,1057" style="fill:#604b6d;stroke:#604b6d;"></polygon><polygon stroke-linejoin="round" stroke-miterlimit="1" stroke-width="1" points="26,703 -104,1047 -74,1057" style="fill:#634b8b;stroke:#634b8b;"></polygon><polygon stroke-linejoin="round" stroke-miterlimit="1" stroke-width="1" points="154,-48 -51,-101 -27,101" style="fill:#744ca1;stroke:#744ca1;"></polygon><polygon stroke-linejoin="round" stroke-miterlimit="1" stroke-width="1" points="26,703 -199,989 -104,1047" style="fill:#614ba2;stroke:#614ba2;"></polygon><polygon stroke-linejoin="round" stroke-miterlimit="1" stroke-width="1" points="26,703 -199,731 -199,989" style="fill:#634b87;stroke:#634b87;"></polygon><polygon stroke-linejoin="round" stroke-miterlimit="1" stroke-width="1" points="75,198 -184,275 7,411" style="fill:#734b8f;stroke:#734b8f;"></polygon><polygon stroke-linejoin="round" stroke-miterlimit="1" stroke-width="1" points="93,417 7,411 21,588" style="fill:#6f4bae;stroke:#6f4bae;"></polygon><polygon stroke-linejoin="round" stroke-miterlimit="1" stroke-width="1" points="96,310 7,411 93,417" style="fill:#6c4bb8;stroke:#6c4bb8;"></polygon><polygon stroke-linejoin="round" stroke-miterlimit="1" stroke-width="1" points="96,310 75,198 7,411" style="fill:#6b4bc4;stroke:#6b4bc4;"></polygon><polygon stroke-linejoin="round" stroke-miterlimit="1" stroke-width="1" points="75,198 -27,101 -184,275" style="fill:#794b97;stroke:#794b97;"></polygon><polygon stroke-linejoin="round" stroke-miterlimit="1" stroke-width="1" points="21,588 7,411 -128,481" style="fill:#684bab;stroke:#684bab;"></polygon><polygon stroke-linejoin="round" stroke-miterlimit="1" stroke-width="1" points="26,703 21,588 -199,687" style="fill:#614b70;stroke:#614b70;"></polygon><polygon stroke-linejoin="round" stroke-miterlimit="1" stroke-width="1" points="34,1066 -74,1057 -96,1099" style="fill:#574b5c;stroke:#574b5c;"></polygon><polygon stroke-linejoin="round" stroke-miterlimit="1" stroke-width="1" points="26,703 -199,687 -199,690" style="fill:#574b5c;stroke:#574b5c;"></polygon><polygon stroke-linejoin="round" stroke-miterlimit="1" stroke-width="1" points="26,703 -199,690 -199,731" style="fill:#574b5c;stroke:#574b5c;"></polygon><polygon stroke-linejoin="round" stroke-miterlimit="1" stroke-width="1" points="-27,101 -51,-101 -199,-15" style="fill:#704ca9;stroke:#704ca9;"></polygon><polygon stroke-linejoin="round" stroke-miterlimit="1" stroke-width="1" points="21,588 -128,481 -199,687" style="fill:#5d4b6d;stroke:#5d4b6d;"></polygon><polygon stroke-linejoin="round" stroke-miterlimit="1" stroke-width="1" points="7,411 -184,275 -128,481" style="fill:#654b7a;stroke:#654b7a;"></polygon><polygon stroke-linejoin="round" stroke-miterlimit="1" stroke-width="1" points="-128,481 -199,499 -199,687" style="fill:#794cff;stroke:#794cff;"></polygon><polygon stroke-linejoin="round" stroke-miterlimit="1" stroke-width="1" points="-128,481 -184,275 -199,287" style="fill:#574b5c;stroke:#574b5c;"></polygon><polygon stroke-linejoin="round" stroke-miterlimit="1" stroke-width="1" points="-51,-101 -149,-101 -199,-15" style="fill:#824cec;stroke:#824cec;"></polygon><polygon stroke-linejoin="round" stroke-miterlimit="1" stroke-width="1" points="-27,101 -199,-15 -184,275" style="fill:#7a4cb3;stroke:#7a4cb3;"></polygon><polygon stroke-linejoin="round" stroke-miterlimit="1" stroke-width="1" points="-96,1099 -104,1047 -100,1099" style="fill:#9d4dff;stroke:#9d4dff;"></polygon><polygon stroke-linejoin="round" stroke-miterlimit="1" stroke-width="1" points="-74,1057 -104,1047 -96,1099" style="fill:#574b5c;stroke:#574b5c;"></polygon><polygon stroke-linejoin="round" stroke-miterlimit="1" stroke-width="1" points="-128,481 -199,287 -199,499" style="fill:#5a4b5f;stroke:#5a4b5f;"></polygon><polygon stroke-linejoin="round" stroke-miterlimit="1" stroke-width="1" points="-104,1047 -199,989 -199,1046" style="fill:#644b87;stroke:#644b87;"></polygon><polygon stroke-linejoin="round" stroke-miterlimit="1" stroke-width="1" points="-100,1099 -104,1047 -182,1099" style="fill:#574b5c;stroke:#574b5c;"></polygon><polygon stroke-linejoin="round" stroke-miterlimit="1" stroke-width="1" points="-104,1047 -199,1046 -182,1099" style="fill:#614b74;stroke:#614b74;"></polygon><polygon stroke-linejoin="round" stroke-miterlimit="1" stroke-width="1" points="-184,275 -199,-15 -199,287" style="fill:#d94fff;stroke:#d94fff;"></polygon><polygon stroke-linejoin="round" stroke-miterlimit="1" stroke-width="1" points="-149,-101 -199,-101 -199,-15" style="fill:#894cff;stroke:#894cff;"></polygon><polygon stroke-linejoin="round" stroke-miterlimit="1" stroke-width="1" points="-182,1099 -199,1046 -199,1099" style="fill:#574b5c;stroke:#574b5c;"></polygon></svg>